{"glyphs":{"0":{"ha":896,"x_min":97,"x_max":813,"o":"m 465 986 q 627 956 561 986 q 734 866 693 926 q 794 714 775 806 q 813 500 813 622 q 451 -14 813 -14 q 97 486 97 -14 q 465 986 97 986 m 250 486 q 458 104 250 104 q 613 199 567 104 q 660 492 660 294 q 615 777 660 686 q 457 868 569 868 q 298 776 346 868 q 250 486 250 683 z "},"1":{"ha":711,"x_min":28,"x_max":676,"o":"m 676 118 l 676 0 l 108 0 l 108 118 l 322 118 l 322 813 l 86 660 l 28 760 l 351 972 l 468 972 l 468 118 l 676 118 z "},"2":{"ha":792,"x_min":63,"x_max":722,"o":"m 63 0 l 63 118 q 295 331 203 243 q 442 483 388 418 q 519 601 497 549 q 542 708 542 653 q 492 826 542 783 q 354 868 442 868 q 228 847 286 868 l 208 840 l 194 708 l 83 708 l 76 931 q 376 986 226 986 q 507 972 449 986 q 608 926 565 957 q 673 845 651 894 q 694 728 694 796 q 672 594 694 658 q 597 460 649 531 q 461 308 544 390 q 257 118 378 225 l 722 118 l 722 0 l 63 0 z "},"3":{"ha":764,"x_min":28,"x_max":681,"o":"m 194 563 l 306 563 q 458 605 401 563 q 514 719 514 647 q 465 830 514 792 q 333 868 417 868 q 200 847 258 868 l 181 840 l 167 715 l 56 715 l 49 931 q 344 986 199 986 q 574 927 489 986 q 660 743 660 868 q 479 511 660 557 q 626 430 572 492 q 681 289 681 368 q 649 151 681 208 q 565 57 617 93 q 447 3 513 21 q 313 -14 381 -14 q 233 -9 272 -14 q 161 3 194 -4 q 101 21 128 11 q 58 39 75 31 l 28 56 l 69 167 q 319 104 188 104 q 472 150 415 104 q 528 279 528 196 q 466 407 528 363 q 299 451 404 451 l 194 451 l 194 563 z "},"4":{"ha":847,"x_min":28,"x_max":792,"o":"m 28 333 l 472 993 l 632 972 l 632 347 l 792 347 l 792 229 l 632 229 l 632 0 l 489 0 l 489 229 l 42 229 l 28 333 m 489 806 l 181 347 l 489 347 l 489 806 z "},"5":{"ha":736,"x_min":28,"x_max":667,"o":"m 628 972 l 624 854 l 232 854 l 219 590 l 264 590 q 432 569 357 590 q 559 510 507 549 q 639 417 611 471 q 667 299 667 364 q 639 167 667 225 q 563 68 611 110 q 453 6 515 26 q 319 -14 392 -14 q 240 -9 279 -14 q 165 3 200 -4 q 103 21 131 11 q 61 39 75 31 l 28 56 l 69 167 q 313 104 179 104 q 391 117 354 104 q 455 153 428 129 q 498 213 482 178 q 514 293 514 247 q 439 432 514 385 q 229 479 364 479 l 83 479 l 101 972 l 628 972 z "},"6":{"ha":833,"x_min":83,"x_max":771,"o":"m 590 986 q 694 972 654 986 l 688 861 q 640 866 667 864 q 581 868 613 868 q 463 850 514 868 q 376 803 413 832 q 314 738 339 774 q 273 667 289 703 q 249 599 257 631 q 239 547 242 568 l 236 528 q 279 552 251 540 q 340 574 307 564 q 408 591 374 585 q 472 597 443 597 q 589 577 535 597 q 683 519 643 557 q 747 426 724 481 q 771 301 771 371 q 744 174 771 232 q 673 75 718 117 q 567 10 628 33 q 438 -14 506 -14 q 282 17 349 -14 q 172 103 215 47 q 106 238 128 160 q 83 410 83 315 q 116 645 83 539 q 213 827 149 751 q 372 944 276 903 q 590 986 467 986 m 229 417 l 229 375 q 288 171 229 238 q 435 104 347 104 q 574 154 522 104 q 625 292 625 204 q 431 479 625 479 q 379 475 406 479 q 330 463 353 471 q 288 447 307 456 q 256 432 268 439 l 229 417 z "},"7":{"ha":697,"x_min":7,"x_max":674,"o":"m 7 972 l 674 972 l 674 868 l 303 0 l 143 0 l 511 847 l 139 847 l 111 715 l 7 715 l 7 972 z "},"8":{"ha":819,"x_min":69,"x_max":750,"o":"m 736 736 q 719 652 736 689 q 675 588 701 615 q 617 543 649 561 q 557 515 586 525 q 699 423 647 478 q 750 278 750 368 q 725 160 750 214 q 654 68 700 107 q 543 8 608 29 q 399 -14 478 -14 q 258 6 319 -14 q 154 63 196 26 q 91 151 113 100 q 69 264 69 201 q 90 359 69 317 q 144 431 111 401 q 208 481 176 461 q 261 510 240 500 q 140 599 182 549 q 97 729 97 649 q 186 921 97 856 q 426 986 275 986 q 657 917 578 986 q 736 736 736 849 m 597 271 q 560 363 597 321 q 449 433 524 404 l 382 460 q 222 271 222 388 q 272 149 222 192 q 410 106 321 106 q 548 149 499 106 q 597 271 597 192 m 442 556 q 590 729 590 617 q 545 831 590 793 q 417 868 500 868 q 288 831 333 868 q 243 729 243 793 q 258 669 243 694 q 300 624 274 643 q 363 587 326 604 q 442 556 400 569 z "},"9":{"ha":833,"x_min":63,"x_max":750,"o":"m 250 -14 q 139 0 186 -14 l 146 111 q 192 106 168 108 q 244 103 217 103 q 372 122 318 103 q 465 170 426 140 q 528 237 504 200 q 567 310 553 274 q 588 379 582 347 q 596 432 594 411 l 597 451 q 554 427 582 439 q 493 405 526 415 q 425 388 460 394 q 361 382 390 382 q 244 401 299 382 q 149 456 189 419 q 85 547 108 493 q 63 672 63 601 q 89 801 63 743 q 161 900 115 858 q 267 964 207 942 q 396 986 328 986 q 549 956 483 986 q 660 869 615 925 q 727 735 704 814 q 750 563 750 657 q 718 328 750 435 q 624 146 686 222 q 467 28 561 69 q 250 -14 374 -14 m 604 563 l 604 604 q 545 803 604 738 q 399 868 486 868 q 260 818 311 868 q 208 681 208 768 q 403 500 208 500 q 503 515 454 499 q 578 547 551 532 l 604 563 z "}," ":{"ha":319,"x_min":0,"x_max":0,"o":""},"!":{"ha":444,"x_min":132,"x_max":313,"o":"m 306 1042 l 285 347 l 167 340 l 146 1042 l 306 1042 m 221 -14 q 156 12 181 -14 q 132 82 132 38 q 158 154 132 128 q 224 181 183 181 q 288 155 264 181 q 313 83 313 129 q 287 13 313 39 q 221 -14 261 -14 z "},"\"":{"ha":539,"x_min":90,"x_max":461,"o":"m 461 1069 l 433 722 l 329 722 l 329 1069 l 461 1069 m 222 1069 l 194 722 l 90 722 l 90 1069 l 222 1069 z "},"#":{"ha":958,"x_min":90,"x_max":868,"o":"m 125 528 l 125 618 l 290 618 l 319 833 l 431 833 l 401 618 l 603 618 l 632 833 l 743 833 l 714 618 l 868 618 l 868 528 l 701 528 l 675 326 l 833 326 l 833 236 l 663 236 l 632 0 l 521 0 l 551 236 l 350 236 l 319 0 l 208 0 l 239 236 l 90 236 l 90 326 l 251 326 l 278 528 l 125 528 m 389 528 l 363 326 l 564 326 l 590 528 l 389 528 z "},"$":{"ha":757,"x_min":90,"x_max":681,"o":"m 438 -194 l 333 -194 l 333 -14 q 273 -10 304 -14 q 213 -1 242 -7 q 161 10 185 4 q 122 22 138 17 l 90 35 l 90 257 l 188 257 l 215 129 q 346 101 267 101 q 423 110 388 101 q 485 134 458 118 q 528 174 513 150 q 543 229 543 197 q 510 306 543 278 q 427 354 476 333 q 320 394 378 375 q 213 442 263 413 q 131 517 164 471 q 97 639 97 564 q 163 805 97 744 q 333 881 229 865 l 333 1042 l 438 1042 l 438 885 q 629 844 542 876 l 660 833 l 653 625 l 569 625 l 535 750 q 397 778 471 778 q 280 743 324 778 q 236 660 236 708 q 269 583 236 611 q 351 533 301 554 q 458 492 401 511 q 565 444 515 472 q 648 371 615 415 q 681 257 681 326 q 613 81 681 147 q 438 -6 546 14 l 438 -194 z "},"%":{"ha":1132,"x_min":63,"x_max":1056,"o":"m 215 0 l 778 972 l 903 972 l 340 0 l 215 0 m 279 500 q 121 558 179 500 q 63 735 63 617 q 79 840 63 793 q 126 919 96 888 q 198 969 157 951 q 289 986 239 986 q 448 926 389 986 q 507 747 507 865 q 444 565 507 629 q 279 500 381 500 m 285 896 q 167 743 167 896 q 285 590 167 590 q 403 743 403 590 q 285 896 403 896 m 828 -14 q 669 44 728 -14 q 611 221 611 103 q 628 326 611 279 q 675 406 644 374 q 747 455 706 438 q 838 472 788 472 q 997 412 938 472 q 1056 233 1056 351 q 992 51 1056 115 q 828 -14 929 -14 m 833 382 q 715 229 715 382 q 833 76 715 76 q 951 229 951 76 q 833 382 951 382 z "},"&":{"ha":931,"x_min":97,"x_max":875,"o":"m 764 458 l 764 292 q 674 66 764 146 q 419 -14 583 -14 q 177 62 257 -14 q 97 271 97 138 q 115 358 97 318 q 160 428 133 397 q 215 482 186 460 q 265 517 244 504 l 285 528 q 233 549 261 533 q 179 590 204 565 q 138 651 154 615 q 121 736 121 688 q 206 924 121 863 q 444 986 290 986 q 502 982 471 986 q 565 972 533 978 q 624 958 596 965 q 669 944 651 950 l 708 931 l 701 736 l 613 736 l 583 847 q 438 868 526 868 q 264 725 264 868 q 278 663 264 692 q 317 614 292 635 q 374 581 342 593 q 444 569 407 569 l 875 569 l 875 486 l 764 458 m 625 285 l 625 458 l 438 458 q 364 444 399 458 q 302 406 329 431 q 259 348 275 382 q 243 272 243 314 q 294 147 243 189 q 436 104 346 104 q 576 151 528 104 q 625 285 625 197 z "},"'":{"ha":299,"x_min":90,"x_max":222,"o":"m 222 1069 l 194 722 l 90 722 l 90 1069 l 222 1069 z "},"(":{"ha":458,"x_min":103,"x_max":458,"o":"m 333 1069 l 458 1069 q 300 738 358 915 q 242 386 242 561 q 256 208 242 303 q 299 20 271 114 q 367 -161 326 -74 q 457 -319 407 -249 l 333 -319 q 228 -153 272 -235 q 157 14 185 -71 q 116 190 129 99 q 103 383 103 281 q 116 574 103 488 q 157 742 129 661 q 228 902 185 822 q 333 1069 272 982 z "},")":{"ha":458,"x_min":-1,"x_max":354,"o":"m -1 1069 l 124 1069 q 228 902 185 982 q 300 741 272 822 q 341 573 328 660 q 354 383 354 486 q 341 191 354 282 q 299 15 328 100 q 227 -152 271 -69 q 124 -319 183 -235 l 0 -319 q 90 -161 50 -249 q 158 20 129 -74 q 201 208 186 114 q 215 386 215 303 q 157 738 215 561 q -1 1069 99 915 z "},"*":{"ha":560,"x_min":35,"x_max":504,"o":"m 272 814 l 236 846 l 218 1018 l 319 1021 l 310 844 l 469 913 l 504 815 l 331 775 l 447 638 l 367 576 l 271 733 l 283 781 l 331 775 l 290 801 l 310 844 l 272 814 m 236 846 l 254 801 l 213 778 l 261 781 l 271 733 l 181 576 l 97 635 l 213 778 l 35 813 l 68 910 l 236 846 z "},"+":{"ha":861,"x_min":69,"x_max":792,"o":"m 69 313 l 69 424 l 372 424 l 372 736 l 490 736 l 490 424 l 792 424 l 792 313 l 490 313 l 490 0 l 372 0 l 372 313 l 69 313 z "},",":{"ha":368,"x_min":56,"x_max":278,"o":"m 188 181 q 278 78 278 181 q 118 -214 278 -44 l 56 -161 q 129 -14 129 -62 q 125 3 129 -7 q 113 29 121 14 q 101 61 106 44 q 97 94 97 78 q 122 154 97 128 q 188 181 147 181 z "},"-":{"ha":521,"x_min":83,"x_max":444,"o":"m 83 319 l 83 438 l 444 438 l 444 319 l 83 319 z "},".":{"ha":361,"x_min":90,"x_max":271,"o":"m 179 -14 q 115 12 139 -14 q 90 82 90 38 q 116 154 90 128 q 182 181 142 181 q 247 155 222 181 q 271 83 271 129 q 245 13 271 39 q 179 -14 219 -14 z "},"/":{"ha":703,"x_min":56,"x_max":661,"o":"m 56 0 l 515 972 l 661 972 l 201 0 l 56 0 z "},":":{"ha":389,"x_min":104,"x_max":285,"o":"m 193 -14 q 128 12 153 -14 q 104 82 104 38 q 130 154 104 128 q 196 181 156 181 q 260 155 236 181 q 285 83 285 129 q 259 13 285 39 q 193 -14 233 -14 m 128 463 q 104 535 104 490 q 131 608 104 583 q 196 632 158 632 q 259 606 233 632 q 285 535 285 581 q 259 464 285 490 q 193 438 233 438 q 128 463 153 438 z "},";":{"ha":389,"x_min":63,"x_max":285,"o":"m 125 -214 q 285 78 285 -44 q 194 181 285 181 q 127 153 150 181 q 104 86 104 126 q 110 55 104 71 q 122 25 115 39 q 132 0 128 11 q 136 -19 136 -11 q 131 -42 136 -28 q 118 -74 126 -57 q 100 -107 110 -90 q 81 -136 90 -124 l 63 -161 l 125 -214 m 126 463 q 103 535 103 490 q 131 607 103 582 q 194 632 158 632 q 258 606 232 632 q 283 535 283 581 q 257 463 283 489 q 190 438 231 438 q 126 463 151 438 z "},"<":{"ha":847,"x_min":69,"x_max":778,"o":"m 222 368 l 778 111 l 778 -7 l 69 319 l 69 417 l 778 736 l 778 618 l 222 368 z "},"=":{"ha":833,"x_min":76,"x_max":757,"o":"m 76 188 l 76 299 l 757 299 l 757 188 l 76 188 m 76 458 l 76 569 l 757 569 l 757 458 l 76 458 z "},">":{"ha":847,"x_min":69,"x_max":778,"o":"m 69 111 l 625 368 l 69 618 l 69 736 l 778 417 l 778 319 l 69 -7 l 69 111 z "},"?":{"ha":668,"x_min":118,"x_max":578,"o":"m 271 -14 q 206 12 231 -14 q 182 82 182 38 q 208 154 182 128 q 274 181 233 181 q 338 155 314 181 q 363 83 363 129 q 337 13 363 39 q 271 -14 311 -14 m 324 325 l 199 317 q 186 449 186 410 q 201 502 186 476 q 238 553 215 528 q 290 601 261 578 q 344 649 318 625 q 432 806 432 724 q 286 917 432 917 q 220 913 251 918 q 161 903 189 908 l 140 899 l 118 1003 q 293 1035 211 1035 q 406 1023 354 1035 q 497 985 458 1011 q 557 919 536 960 q 578 819 578 878 q 567 751 578 785 q 538 686 556 717 q 497 629 519 656 q 450 583 474 603 q 353 488 386 531 q 321 411 319 446 l 324 325 z "},"@":{"ha":1139,"x_min":90,"x_max":1056,"o":"m 771 42 q 542 -14 674 -14 q 206 113 321 -14 q 90 474 90 240 q 126 685 90 590 q 226 847 161 781 q 381 950 290 914 q 581 986 471 986 q 778 952 690 986 q 928 855 867 918 q 1022 701 989 792 q 1056 500 1056 611 q 992 291 1056 367 q 821 215 929 215 q 727 238 769 215 q 669 307 685 260 q 637 275 657 290 q 594 248 617 260 q 548 228 571 236 q 506 221 525 221 q 391 260 431 221 q 351 376 351 300 q 576 531 351 531 l 651 531 l 651 597 q 557 674 651 674 q 439 653 510 674 l 415 646 l 390 725 q 585 768 493 768 q 763 608 763 768 l 763 360 q 780 315 763 331 q 828 299 797 299 q 913 350 882 299 q 944 493 944 401 q 919 653 944 582 q 845 776 893 725 q 728 854 797 826 q 574 882 660 882 q 420 855 489 882 q 303 776 351 828 q 228 651 254 725 q 201 485 201 578 q 293 194 201 297 q 549 90 385 90 q 694 117 628 90 l 715 125 l 771 42 m 651 456 l 585 456 q 488 438 517 456 q 460 383 460 419 q 532 313 460 313 q 590 327 560 313 q 636 358 621 342 l 651 375 l 651 456 z "},"A":{"ha":1007,"x_min":7,"x_max":1000,"o":"m 7 0 l 7 83 l 121 110 l 438 965 l 576 972 l 885 110 l 1000 83 l 1000 0 l 597 0 l 597 83 l 726 110 l 674 264 l 313 264 l 258 110 l 389 83 l 389 0 l 7 0 m 496 793 l 350 375 l 636 375 l 496 793 z "},"B":{"ha":875,"x_min":56,"x_max":806,"o":"m 56 0 l 56 83 l 174 111 l 174 861 l 56 889 l 56 965 l 313 972 l 472 972 q 690 911 608 972 q 771 729 771 850 q 590 504 771 550 q 752 421 699 479 q 806 278 806 363 q 451 0 806 0 l 56 0 m 313 451 l 313 111 l 458 111 q 660 271 660 111 q 599 411 660 371 q 417 451 539 451 l 313 451 m 313 861 l 313 556 l 417 556 q 569 595 514 556 q 625 710 625 635 q 581 824 625 786 q 465 861 536 861 l 313 861 z "},"C":{"ha":896,"x_min":56,"x_max":847,"o":"m 722 682 l 685 840 q 507 868 610 868 q 290 765 365 868 q 215 478 215 663 q 297 201 215 292 q 514 111 378 111 q 580 118 544 111 q 649 138 615 125 q 710 166 682 151 q 756 194 738 181 l 792 222 l 847 132 q 777 75 817 101 q 692 28 738 49 q 599 -3 647 8 q 500 -14 550 -14 q 172 109 288 -14 q 56 468 56 232 q 88 682 56 586 q 182 845 121 778 q 328 949 243 913 q 521 986 414 986 q 591 981 553 986 q 666 968 629 976 q 735 951 703 960 q 789 933 768 942 l 833 917 l 826 682 l 722 682 z "},"D":{"ha":1014,"x_min":83,"x_max":958,"o":"m 347 111 l 507 111 q 722 206 644 111 q 799 490 799 300 q 724 772 799 682 q 514 861 649 861 l 347 861 l 347 111 m 83 0 l 83 83 l 201 111 l 201 861 l 83 889 l 83 965 l 347 972 l 521 972 q 705 941 624 972 q 842 849 786 910 q 928 701 899 789 q 958 499 958 613 q 926 293 958 385 q 833 136 893 201 q 689 35 774 71 q 500 0 604 0 l 83 0 z "},"E":{"ha":868,"x_min":83,"x_max":785,"o":"m 646 861 l 347 861 l 347 563 l 667 563 l 667 451 l 347 451 l 347 111 l 667 111 l 694 250 l 785 250 l 785 0 l 83 0 l 83 83 l 201 111 l 201 861 l 83 889 l 83 965 l 347 972 l 771 972 l 771 736 l 681 736 l 646 861 z "},"F":{"ha":792,"x_min":56,"x_max":743,"o":"m 618 861 l 319 861 l 319 549 l 639 549 l 639 438 l 319 438 l 319 111 l 458 83 l 458 0 l 56 0 l 56 83 l 174 111 l 174 861 l 56 889 l 56 965 l 319 972 l 743 972 l 743 743 l 653 743 l 618 861 z "},"G":{"ha":1043,"x_min":83,"x_max":986,"o":"m 882 367 l 882 69 q 857 56 881 69 q 788 27 833 43 q 677 -1 743 11 q 528 -14 611 -14 q 199 109 315 -14 q 83 468 83 232 q 116 682 83 586 q 210 845 149 778 q 356 949 271 913 q 549 986 442 986 q 619 981 581 986 q 694 968 657 976 q 763 951 731 960 q 817 933 796 942 l 861 917 l 854 688 l 764 688 l 722 840 q 535 868 636 868 q 318 767 393 868 q 243 476 243 665 q 325 197 243 289 q 549 104 407 104 q 717 131 633 104 l 743 139 l 743 367 l 625 394 l 625 471 l 986 478 l 986 394 l 882 367 z "},"H":{"ha":1104,"x_min":56,"x_max":1049,"o":"m 451 83 l 451 0 l 56 0 l 56 83 l 174 111 l 174 861 l 56 889 l 56 965 l 451 972 l 451 889 l 319 861 l 319 556 l 785 556 l 785 861 l 653 889 l 653 965 l 1049 972 l 1049 889 l 931 861 l 931 111 l 1049 83 l 1049 0 l 653 0 l 653 83 l 785 111 l 785 444 l 319 444 l 319 111 l 451 83 z "},"I":{"ha":493,"x_min":56,"x_max":438,"o":"m 438 83 l 438 0 l 56 0 l 56 83 l 174 111 l 174 861 l 56 889 l 56 965 l 438 972 l 438 889 l 319 861 l 319 111 l 438 83 z "},"J":{"ha":499,"x_min":-28,"x_max":443,"o":"m 61 965 l 443 972 l 443 889 l 325 861 l 325 63 q 255 -136 325 -64 q 61 -208 185 -208 l -28 -201 l -15 -97 l 54 -97 q 179 35 179 -97 l 179 861 l 61 889 l 61 965 z "},"K":{"ha":986,"x_min":56,"x_max":972,"o":"m 451 83 l 451 0 l 56 0 l 56 83 l 174 111 l 174 861 l 56 889 l 56 965 l 451 972 l 451 889 l 319 861 l 319 556 l 447 556 l 688 965 l 917 972 l 917 889 l 779 861 l 568 510 l 854 111 l 972 83 l 972 0 l 576 0 l 576 83 l 694 111 l 456 444 l 319 444 l 319 111 l 451 83 z "},"L":{"ha":736,"x_min":49,"x_max":722,"o":"m 313 861 l 313 111 l 597 111 l 625 271 l 722 271 l 722 0 l 49 0 l 49 83 l 167 111 l 167 861 l 49 889 l 49 965 l 431 972 l 431 889 l 313 861 z "},"M":{"ha":1215,"x_min":56,"x_max":1174,"o":"m 785 0 l 785 83 l 917 111 l 917 806 l 875 701 l 660 264 l 549 257 l 333 708 l 299 806 l 299 111 l 431 83 l 431 0 l 56 0 l 56 83 l 174 111 l 174 861 l 56 889 l 56 965 l 368 972 l 619 417 l 882 965 l 1174 972 l 1174 889 l 1056 861 l 1056 111 l 1174 83 l 1174 0 l 785 0 z "},"N":{"ha":1097,"x_min":56,"x_max":1049,"o":"m 757 0 l 299 765 l 299 111 l 431 83 l 431 0 l 56 0 l 56 83 l 174 111 l 174 861 l 56 889 l 56 965 l 347 972 l 806 196 l 806 861 l 688 889 l 688 965 l 1049 972 l 1049 889 l 931 861 l 931 0 l 757 0 z "},"O":{"ha":1049,"x_min":83,"x_max":965,"o":"m 83 475 q 115 686 83 592 q 206 848 146 781 q 348 951 265 915 q 532 986 431 986 q 714 952 633 986 q 851 854 794 918 q 936 700 907 790 q 965 497 965 610 q 932 291 965 385 q 838 130 899 197 q 693 24 778 63 q 506 -14 608 -14 q 192 113 301 -14 q 83 475 83 239 m 528 868 q 243 486 243 868 q 514 104 243 104 q 729 201 653 104 q 806 493 806 299 q 528 868 806 868 z "},"P":{"ha":819,"x_min":56,"x_max":785,"o":"m 56 0 l 56 83 l 174 111 l 174 861 l 56 889 l 56 965 l 319 972 l 465 972 q 702 896 619 972 q 785 688 785 819 q 687 444 785 528 q 410 361 589 361 l 319 361 l 319 111 l 438 83 l 438 0 l 56 0 m 319 861 l 319 472 l 410 472 q 639 667 639 472 q 592 807 639 753 q 458 861 544 861 l 319 861 z "},"Q":{"ha":1049,"x_min":83,"x_max":1146,"o":"m 1090 -90 l 1146 -174 q 931 -257 1006 -257 q 750 -181 876 -257 l 474 -11 q 183 128 283 4 q 83 481 83 253 q 117 688 83 594 q 213 847 151 781 q 359 950 274 914 q 547 986 444 986 q 731 953 650 986 q 866 856 811 919 q 950 703 921 793 q 979 500 979 613 q 957 326 979 406 q 894 182 935 246 q 794 74 853 118 q 663 7 736 29 l 813 -83 q 958 -139 906 -139 q 1068 -103 999 -139 l 1090 -90 m 542 868 q 315 774 393 868 q 236 489 236 679 q 309 202 236 300 q 528 104 382 104 q 751 202 675 104 q 826 493 826 300 q 542 868 826 868 z "},"R":{"ha":903,"x_min":56,"x_max":896,"o":"m 56 0 l 56 83 l 174 111 l 174 861 l 56 889 l 56 965 l 319 972 l 472 972 q 702 906 619 972 q 785 722 785 839 q 604 451 785 518 q 688 326 638 422 l 797 106 l 896 83 l 896 0 l 688 0 l 569 257 q 485 392 521 361 q 382 424 450 424 l 319 424 l 319 111 l 438 83 l 438 0 l 56 0 m 319 861 l 319 528 l 424 528 q 582 574 525 528 q 639 694 639 619 q 590 816 639 771 q 465 861 542 861 l 319 861 z "},"S":{"ha":831,"x_min":97,"x_max":746,"o":"m 208 285 l 236 139 q 304 115 261 125 q 389 104 347 104 q 469 115 431 104 q 538 144 508 125 q 584 191 567 164 q 601 253 601 218 q 579 320 601 293 q 522 367 557 347 q 442 403 486 388 q 351 435 397 418 q 258 477 303 456 q 177 530 213 499 q 121 606 142 561 q 100 715 100 650 q 127 836 100 785 q 199 921 154 888 q 305 970 244 954 q 432 986 365 986 q 497 982 463 986 q 565 972 532 978 q 628 958 599 965 q 678 944 657 950 l 722 931 l 715 694 l 625 694 l 578 843 q 501 861 539 856 q 422 867 463 867 q 349 856 382 867 q 294 828 317 846 q 258 788 271 810 q 246 742 246 765 q 285 650 247 683 q 378 593 322 617 q 498 549 433 569 q 617 497 563 528 q 709 415 672 465 q 746 285 746 365 q 718 157 746 213 q 642 63 690 101 q 526 5 593 25 q 383 -15 460 -15 q 317 -11 353 -15 q 248 -1 282 -7 q 185 13 214 6 q 136 28 156 21 l 97 42 l 97 285 l 208 285 z "},"T":{"ha":785,"x_min":14,"x_max":771,"o":"m 604 83 l 604 0 l 181 0 l 181 83 l 319 111 l 319 861 l 139 861 l 104 722 l 14 722 l 14 972 l 771 972 l 771 722 l 681 722 l 646 861 l 465 861 l 465 111 l 604 83 z "},"U":{"ha":1097,"x_min":56,"x_max":1042,"o":"m 924 861 l 924 396 q 838 89 924 192 q 547 -14 751 -14 q 258 81 343 -14 q 174 375 174 176 l 174 861 l 56 889 l 56 965 l 451 972 l 451 889 l 319 861 l 319 375 q 372 163 319 222 q 551 104 425 104 q 728 169 678 104 q 778 396 778 233 l 778 861 l 646 889 l 646 965 l 1042 972 l 1042 889 l 924 861 z "},"V":{"ha":972,"x_min":7,"x_max":965,"o":"m 410 0 l 114 861 l 7 889 l 7 965 l 396 972 l 396 889 l 269 863 l 488 188 l 719 861 l 590 889 l 590 965 l 965 972 l 965 889 l 857 861 l 549 0 l 410 0 z "},"W":{"ha":1438,"x_min":7,"x_max":1431,"o":"m 347 0 l 115 861 l 7 889 l 7 965 l 396 972 l 396 889 l 275 861 l 424 232 l 653 965 l 785 972 l 1010 217 l 1182 861 l 1056 889 l 1056 965 l 1431 972 l 1431 889 l 1321 861 l 1076 0 l 924 0 l 717 789 l 674 632 l 486 0 l 347 0 z "},"X":{"ha":972,"x_min":14,"x_max":958,"o":"m 14 0 l 14 83 l 104 104 l 396 493 l 139 861 l 35 889 l 35 965 l 403 972 l 403 889 l 313 861 l 493 597 l 674 861 l 576 889 l 576 965 l 944 972 l 944 889 l 819 861 l 569 500 l 840 111 l 958 83 l 958 0 l 583 0 l 583 83 l 667 104 l 472 389 l 264 111 l 382 83 l 382 0 l 14 0 z "},"Y":{"ha":896,"x_min":14,"x_max":882,"o":"m 257 0 l 257 83 l 375 111 l 375 360 l 107 863 l 14 889 l 14 965 l 361 972 l 361 889 l 267 861 l 451 472 l 656 861 l 549 889 l 549 965 l 882 972 l 882 889 l 796 864 l 521 363 l 521 111 l 639 83 l 639 0 l 257 0 z "},"Z":{"ha":854,"x_min":56,"x_max":799,"o":"m 97 972 l 799 972 l 799 875 l 243 111 l 674 111 l 701 250 l 792 250 l 792 0 l 56 0 l 56 97 l 611 861 l 222 861 l 188 722 l 97 722 l 97 972 z "},"[":{"ha":479,"x_min":125,"x_max":424,"o":"m 424 -222 l 424 -312 l 125 -319 l 125 1069 l 424 1063 l 424 972 l 257 957 l 257 -207 l 424 -222 z "},"\\":{"ha":703,"x_min":42,"x_max":647,"o":"m 188 972 l 647 0 l 501 0 l 42 972 l 188 972 z "},"]":{"ha":479,"x_min":56,"x_max":354,"o":"m 354 -319 l 56 -312 l 56 -222 l 222 -207 l 222 957 l 56 972 l 56 1063 l 354 1069 l 354 -319 z "},"^":{"ha":792,"x_min":83,"x_max":708,"o":"m 392 833 l 201 444 l 83 444 l 347 972 l 444 972 l 708 444 l 588 444 l 392 833 z "},"_":{"ha":694,"x_min":0,"x_max":694,"o":"m 0 -208 l 0 -111 l 694 -111 l 694 -208 l 0 -208 z "},"`":{"ha":583,"x_min":132,"x_max":458,"o":"m 403 882 l 132 1056 l 201 1160 l 458 958 l 403 882 z "},"a":{"ha":785,"x_min":63,"x_max":743,"o":"m 104 694 q 379 750 254 750 q 567 701 501 750 q 632 535 632 651 l 632 111 l 743 83 l 743 7 l 528 0 l 499 97 q 279 -14 388 -14 q 117 40 171 -14 q 63 194 63 94 q 382 410 63 410 l 493 410 l 493 521 q 361 646 493 646 q 238 631 286 646 l 221 625 l 201 521 l 111 521 l 104 694 m 493 319 l 396 319 q 248 292 292 319 q 204 208 204 265 q 230 126 204 154 q 304 97 256 97 q 352 106 328 97 q 399 126 376 114 q 440 153 422 139 q 469 181 458 168 l 493 208 l 493 319 z "},"b":{"ha":813,"x_min":0,"x_max":750,"o":"m 250 1069 l 250 669 q 458 750 351 750 q 678 654 606 750 q 750 382 750 558 q 725 223 750 296 q 651 97 700 150 q 532 15 603 44 q 368 -14 461 -14 q 241 -8 297 -12 q 142 11 185 -3 l 111 21 l 111 958 l 0 986 l 0 1063 l 250 1069 m 250 111 q 394 97 283 97 q 490 118 450 97 q 555 176 529 139 q 592 263 581 213 q 604 374 604 314 q 562 569 604 499 q 431 639 519 639 q 319 612 361 639 q 250 549 276 585 l 250 111 z "},"c":{"ha":708,"x_min":56,"x_max":681,"o":"m 646 507 l 556 507 l 535 625 q 410 639 481 639 q 256 575 310 639 q 201 376 201 511 q 258 169 201 242 q 417 97 315 97 q 474 103 446 97 q 528 117 503 108 q 575 138 554 126 q 608 160 596 149 l 632 181 l 681 97 l 665 85 q 619 53 649 71 q 555 22 590 36 q 480 -3 519 7 q 403 -14 440 -14 q 144 87 233 -14 q 56 363 56 188 q 81 520 56 449 q 154 642 107 592 q 268 722 201 693 q 417 750 335 750 q 474 746 444 750 q 531 736 503 742 q 582 723 558 731 q 622 708 606 715 l 653 694 l 646 507 z "},"d":{"ha":854,"x_min":63,"x_max":819,"o":"m 701 1069 l 701 111 l 819 83 l 819 7 l 583 0 l 572 79 q 343 -14 479 -14 q 135 83 208 -14 q 63 350 63 179 q 156 641 63 532 q 431 750 249 750 q 563 728 499 750 l 563 958 l 444 986 l 444 1063 l 701 1069 m 563 201 l 563 611 q 417 639 514 639 q 208 361 208 639 q 251 168 208 239 q 382 97 293 97 q 497 133 450 97 q 563 201 542 169 z "},"e":{"ha":736,"x_min":56,"x_max":688,"o":"m 681 350 l 201 347 q 256 165 201 233 q 403 97 311 97 q 464 103 433 97 q 522 117 494 108 q 571 135 549 125 q 608 156 593 146 l 636 174 l 685 101 q 598 42 638 64 q 505 3 558 21 q 389 -14 451 -14 q 140 85 225 -14 q 56 357 56 185 q 81 515 56 443 q 151 640 106 588 q 258 721 196 692 q 396 750 321 750 q 688 424 688 750 l 681 350 m 207 451 l 540 451 q 504 589 540 536 q 388 642 468 642 q 261 588 308 642 q 207 451 214 535 z "},"f":{"ha":611,"x_min":97,"x_max":688,"o":"m 97 715 l 222 729 l 222 813 q 289 1011 222 939 q 479 1083 356 1083 q 590 1072 538 1083 q 664 1047 642 1060 l 688 1035 l 688 861 l 590 861 l 569 972 q 475 979 535 979 q 361 840 361 979 l 361 729 l 544 729 l 540 625 l 361 625 l 361 111 l 496 76 l 496 0 l 104 0 l 104 76 l 222 111 l 222 625 l 97 625 l 97 715 z "},"g":{"ha":813,"x_min":63,"x_max":778,"o":"m 375 222 q 271 235 314 222 l 264 104 l 479 104 q 686 53 615 104 q 757 -103 757 1 q 665 -281 757 -215 q 396 -347 574 -347 q 63 -146 63 -347 q 156 3 63 -58 q 208 28 178 17 q 148 54 171 33 q 125 101 125 75 q 179 235 125 147 l 197 264 q 163 289 185 268 q 128 331 142 310 q 90 479 90 389 q 173 681 90 611 q 396 750 256 750 q 519 731 474 750 l 535 724 l 778 729 l 778 653 l 643 633 q 681 493 681 583 q 599 290 681 357 q 375 222 517 222 m 444 0 l 292 0 q 265 -17 285 -3 q 233 -44 244 -32 q 201 -125 201 -81 q 255 -218 201 -193 q 417 -243 308 -243 q 625 -111 625 -243 q 580 -24 625 -47 q 444 0 535 0 m 389 653 q 229 486 229 653 q 268 365 229 410 q 381 319 307 319 q 503 359 465 319 q 542 486 542 399 q 389 653 542 653 z "},"h":{"ha":903,"x_min":35,"x_max":861,"o":"m 292 1069 l 292 650 q 528 750 410 750 q 701 684 646 750 q 757 500 757 618 l 757 111 l 861 76 l 861 0 l 528 0 l 528 76 l 618 110 l 618 486 q 590 597 618 561 q 503 632 563 632 q 446 624 474 632 q 393 604 418 617 q 349 577 368 592 q 317 549 329 563 l 292 521 l 292 111 l 382 76 l 382 0 l 35 0 l 35 76 l 153 111 l 153 958 l 35 986 l 35 1063 l 292 1069 z "},"i":{"ha":465,"x_min":56,"x_max":417,"o":"m 236 1063 q 326 958 326 1063 q 296 892 326 915 q 231 868 265 868 q 169 894 193 868 q 146 965 146 919 q 172 1037 146 1011 q 236 1063 197 1063 m 313 736 l 313 111 l 417 76 l 417 0 l 56 0 l 56 76 l 174 111 l 174 625 l 56 653 l 56 729 l 313 736 z "},"j":{"ha":401,"x_min":-56,"x_max":297,"o":"m 290 736 l 290 -62 q 224 -261 290 -189 q 33 -333 158 -333 l -56 -326 l -43 -229 l 26 -229 q 124 -194 97 -229 q 151 -90 151 -158 l 151 625 l 33 653 l 33 729 l 290 736 m 207 1063 q 297 958 297 1063 q 267 892 297 915 q 201 868 236 868 q 140 894 164 868 q 117 965 117 919 q 143 1037 117 1011 q 207 1063 169 1063 z "},"k":{"ha":813,"x_min":35,"x_max":799,"o":"m 292 1069 l 292 458 l 410 458 l 514 633 l 451 653 l 451 729 l 757 736 l 757 653 l 658 636 l 657 636 l 514 424 l 693 111 l 694 111 l 799 76 l 799 0 l 611 0 l 413 354 l 292 354 l 292 111 l 382 76 l 382 0 l 35 0 l 35 76 l 153 111 l 153 958 l 35 986 l 35 1063 l 292 1069 z "},"l":{"ha":440,"x_min":35,"x_max":433,"o":"m 294 1069 l 294 111 l 433 76 l 433 0 l 35 0 l 35 76 l 153 111 l 153 958 l 35 986 l 35 1063 l 294 1069 z "},"m":{"ha":1361,"x_min":56,"x_max":1319,"o":"m 285 736 l 297 638 q 344 676 317 656 q 406 713 372 696 q 476 740 439 729 q 549 750 513 750 q 742 631 689 750 q 800 677 767 656 q 869 715 833 699 q 938 741 904 732 q 1000 750 972 750 q 1215 500 1215 750 l 1215 111 l 1319 76 l 1319 0 l 986 0 l 986 76 l 1076 111 l 1076 486 q 1050 597 1076 563 q 964 632 1024 632 q 908 624 935 632 q 857 604 881 617 q 815 577 833 592 q 786 549 797 563 l 764 521 l 764 111 l 854 76 l 854 0 l 535 0 l 535 76 l 625 111 l 625 486 q 599 597 625 563 q 513 632 572 632 q 456 624 483 632 q 406 604 429 617 q 364 577 382 592 q 335 549 346 563 l 313 521 l 313 111 l 403 76 l 403 0 l 56 0 l 56 76 l 174 111 l 174 625 l 56 653 l 56 729 l 285 736 z "},"n":{"ha":924,"x_min":56,"x_max":882,"o":"m 285 736 l 297 638 q 336 668 311 649 q 395 706 361 688 q 470 737 429 724 q 556 750 511 750 q 723 684 668 750 q 778 500 778 618 l 778 111 l 882 76 l 882 0 l 549 0 l 549 76 l 639 111 l 639 486 q 610 597 639 561 q 521 632 581 632 q 463 624 492 632 q 410 604 435 617 q 367 577 386 592 q 336 549 349 563 l 313 521 l 313 111 l 403 76 l 403 0 l 56 0 l 56 76 l 174 111 l 174 625 l 56 653 l 56 729 l 285 736 z "},"o":{"ha":792,"x_min":56,"x_max":736,"o":"m 56 357 q 81 519 56 446 q 154 643 107 592 q 266 722 201 694 q 408 750 331 750 q 650 651 564 750 q 736 378 736 553 q 711 220 736 292 q 641 97 686 149 q 531 15 596 44 q 388 -14 467 -14 q 142 81 229 -14 q 56 357 56 175 m 403 639 q 201 368 201 639 q 396 97 201 97 q 544 167 497 97 q 590 375 590 236 q 403 639 590 639 z "},"p":{"ha":854,"x_min":35,"x_max":792,"o":"m 271 736 l 282 658 q 493 750 379 750 q 716 653 640 750 q 792 379 792 557 q 769 221 792 293 q 699 97 746 149 q 581 15 651 44 q 417 -14 511 -14 q 292 6 358 -14 l 292 -215 l 438 -243 l 438 -319 l 42 -319 l 42 -243 l 153 -215 l 153 625 l 35 653 l 35 729 l 271 736 m 292 542 l 292 125 q 438 97 335 97 q 646 375 646 97 q 601 568 646 497 q 465 639 557 639 q 366 615 413 639 q 292 542 319 590 z "},"q":{"ha":806,"x_min":63,"x_max":813,"o":"m 424 -319 l 424 -243 l 563 -215 l 563 67 q 354 -14 461 -14 q 63 347 63 -14 q 88 512 63 438 q 162 639 113 586 q 282 721 211 692 q 444 750 353 750 q 671 729 579 750 l 701 722 l 701 -215 l 813 -243 l 813 -319 l 424 -319 m 563 625 q 415 639 522 639 q 322 619 361 639 q 258 562 283 599 q 221 474 233 525 q 208 363 208 424 q 251 167 208 238 q 382 97 293 97 q 494 124 451 97 q 563 188 536 151 l 563 625 z "},"r":{"ha":646,"x_min":56,"x_max":632,"o":"m 285 736 l 297 635 q 507 750 400 750 q 617 733 564 750 l 632 729 l 625 528 l 535 528 l 514 632 q 313 524 394 632 l 313 111 l 451 76 l 451 0 l 56 0 l 56 76 l 174 111 l 174 625 l 56 653 l 56 729 l 285 736 z "},"s":{"ha":654,"x_min":64,"x_max":590,"o":"m 64 222 l 161 222 l 176 103 q 220 94 190 97 q 279 90 250 90 q 410 117 369 90 q 451 200 451 144 q 423 260 451 238 q 351 297 394 282 q 258 328 308 313 q 164 367 207 343 q 92 431 121 392 q 64 533 64 469 q 133 692 64 638 q 318 750 203 747 q 417 742 367 749 q 521 719 468 736 l 556 708 l 551 521 l 461 521 l 439 629 q 396 640 428 633 q 328 646 364 646 q 281 642 303 646 q 241 628 258 638 q 213 600 224 618 q 203 556 203 582 q 231 492 203 515 q 303 453 260 469 q 397 421 346 436 q 490 381 447 406 q 562 319 533 357 q 590 221 590 282 q 565 118 590 163 q 498 44 540 74 q 399 -1 456 14 q 279 -15 343 -15 q 230 -13 256 -15 q 179 -8 204 -11 q 133 0 154 -4 q 97 8 111 4 l 65 17 l 64 222 z "},"t":{"ha":549,"x_min":28,"x_max":521,"o":"m 306 932 l 306 729 l 507 729 l 507 625 l 306 625 l 306 179 q 375 94 306 94 q 483 129 419 94 l 521 56 q 326 -14 426 -14 q 211 33 256 -14 q 167 188 167 79 l 167 625 l 28 625 l 28 715 l 167 729 l 167 904 l 306 932 z "},"u":{"ha":903,"x_min":28,"x_max":868,"o":"m 750 736 l 750 111 l 868 83 l 868 7 l 639 0 l 625 97 q 493 16 567 46 q 368 -14 419 -14 q 201 51 257 -14 q 146 235 146 117 l 146 625 l 28 653 l 28 729 l 285 736 l 285 249 q 314 140 285 175 q 403 104 343 104 q 513 132 463 104 q 586 186 563 160 l 611 214 l 611 625 l 493 653 l 493 729 l 750 736 z "},"v":{"ha":776,"x_min":7,"x_max":769,"o":"m 319 736 l 319 653 l 222 639 l 388 125 l 554 632 l 458 653 l 458 729 l 769 736 l 769 653 l 693 639 l 457 0 l 304 0 l 76 632 l 7 653 l 7 729 l 319 736 z "},"w":{"ha":1153,"x_min":7,"x_max":1146,"o":"m 319 736 l 319 653 l 215 639 l 333 125 l 515 729 l 647 750 l 819 125 l 931 632 l 833 653 l 833 729 l 1146 736 l 1146 653 l 1065 639 l 896 0 l 736 0 l 604 431 l 571 564 l 542 431 l 410 0 l 250 0 l 76 632 l 7 653 l 7 729 l 319 736 z "},"x":{"ha":785,"x_min":7,"x_max":778,"o":"m 338 736 l 338 653 l 289 644 l 396 465 l 563 729 l 764 736 l 764 653 l 646 632 l 472 375 l 650 108 l 778 76 l 778 0 l 439 0 l 439 76 l 494 93 l 381 276 l 208 0 l 7 0 l 7 76 l 129 108 l 306 368 l 128 633 l 21 653 l 21 729 l 338 736 z "},"y":{"ha":801,"x_min":14,"x_max":794,"o":"m 340 736 l 340 653 l 243 639 l 410 153 l 563 632 l 465 653 l 465 729 l 794 736 l 794 653 l 704 639 l 507 89 q 404 -153 438 -93 q 132 -333 300 -332 l 43 -326 l 56 -229 l 125 -229 q 244 -172 193 -229 q 346 -3 294 -115 l 97 632 l 14 653 l 14 729 l 340 736 z "},"z":{"ha":701,"x_min":90,"x_max":653,"o":"m 653 736 l 653 632 l 246 104 l 529 104 l 549 215 l 646 215 l 646 0 l 90 0 l 90 104 l 496 632 l 235 632 l 215 528 l 118 528 l 118 736 l 653 736 z "},"{":{"ha":514,"x_min":42,"x_max":472,"o":"m 472 1076 l 472 986 q 338 955 374 986 q 301 840 301 924 l 301 603 q 172 410 301 458 q 301 217 301 361 l 301 -76 q 338 -191 301 -160 q 472 -222 374 -222 l 472 -312 l 410 -312 q 228 -259 283 -312 q 174 -76 174 -206 l 174 217 q 144 324 174 286 q 42 361 115 361 l 42 458 q 144 496 115 458 q 174 603 174 533 l 174 840 q 228 1023 174 969 q 410 1076 283 1076 l 472 1076 z "},"|":{"ha":389,"x_min":139,"x_max":250,"o":"m 250 1049 l 250 -319 l 139 -319 l 139 1049 l 250 1049 z "},"}":{"ha":521,"x_min":56,"x_max":486,"o":"m 56 1076 l 118 1076 q 299 1023 244 1076 q 354 840 354 969 l 354 603 q 383 496 354 533 q 486 458 413 458 l 486 361 q 383 324 413 361 q 354 217 354 286 l 354 -76 q 299 -259 354 -206 q 118 -312 244 -312 l 56 -312 l 56 -222 q 190 -191 154 -222 q 226 -76 226 -160 l 226 217 q 356 410 226 361 q 226 603 226 458 l 226 840 q 190 955 226 924 q 56 986 154 986 l 56 1076 z "},"~":{"ha":869,"x_min":83,"x_max":786,"o":"m 147 290 l 83 340 q 112 386 97 368 q 152 427 126 404 q 215 465 178 450 q 306 479 253 479 q 369 466 331 479 q 449 431 407 453 q 526 395 490 408 q 582 382 561 382 q 657 402 625 381 q 706 444 689 424 l 722 465 l 786 415 q 758 371 776 396 q 713 324 739 346 q 655 286 688 301 q 585 271 622 271 q 506 285 546 271 q 422 320 467 299 q 340 355 376 342 q 281 368 303 368 q 208 349 240 367 q 161 310 176 331 l 147 290 z "}," ":{"ha":319,"x_min":0,"x_max":0,"o":""},"¡":{"ha":438,"x_min":125,"x_max":306,"o":"m 217 764 q 281 738 257 764 q 306 667 306 713 q 279 596 306 622 q 213 569 253 569 q 149 595 174 569 q 125 665 125 621 q 151 738 125 711 q 217 764 178 764 m 139 -292 l 160 403 l 278 410 l 299 -292 l 139 -292 z "},"¢":{"ha":708,"x_min":63,"x_max":665,"o":"m 438 972 l 438 844 q 540 826 488 842 q 619 797 592 811 l 646 785 l 639 604 l 549 604 l 528 722 q 410 736 482 736 q 257 683 306 736 q 208 514 208 631 q 417 264 208 264 q 469 269 443 264 q 517 281 494 274 q 559 299 540 289 q 589 317 578 308 l 611 333 l 665 257 q 618 224 646 240 q 559 192 590 207 q 496 167 528 178 q 438 154 464 157 l 438 0 l 333 0 l 333 157 q 131 267 200 176 q 63 494 63 357 q 133 725 63 633 q 333 839 203 817 l 333 972 l 438 972 z "},"£":{"ha":868,"x_min":83,"x_max":785,"o":"m 785 257 l 785 0 l 83 0 l 83 83 l 160 104 q 222 156 208 117 q 236 251 236 194 q 234 333 236 281 q 226 465 232 386 l 83 465 l 83 560 l 219 575 q 215 708 215 642 q 283 913 215 839 q 493 986 351 986 q 566 983 528 986 q 638 975 604 979 q 701 966 672 971 q 744 956 729 961 l 778 944 l 778 750 l 688 750 l 667 865 q 583 873 625 871 q 500 875 542 875 q 354 736 354 875 q 356 652 354 692 q 360 576 357 613 l 590 576 l 590 465 l 367 465 q 375 289 375 340 q 371 238 375 263 q 360 191 367 213 q 344 153 353 169 q 328 128 336 136 l 313 111 l 665 111 l 694 257 l 785 257 z "},"¤":{"ha":803,"x_min":69,"x_max":733,"o":"m 733 675 l 628 569 q 668 418 668 504 q 624 263 668 332 l 733 153 l 665 81 l 553 192 q 397 146 483 146 q 246 188 310 146 l 138 81 l 69 153 l 178 261 q 140 408 140 324 q 183 561 140 496 l 69 675 l 138 747 l 253 633 q 408 681 321 681 q 557 640 493 681 l 665 747 l 733 675 m 258 414 q 294 288 258 333 q 404 243 329 243 q 515 288 479 243 q 550 414 550 333 q 404 583 550 583 q 258 414 258 583 z "},"¥":{"ha":896,"x_min":14,"x_max":882,"o":"m 135 403 l 135 500 l 307 500 l 107 863 l 14 889 l 14 965 l 361 972 l 361 889 l 267 861 l 451 486 l 656 861 l 549 889 l 549 965 l 882 972 l 882 889 l 796 864 l 589 500 l 760 500 l 760 403 l 135 403 m 135 215 l 135 313 l 760 313 l 760 215 l 521 215 l 521 111 l 639 83 l 639 0 l 257 0 l 257 83 l 375 111 l 375 215 l 135 215 z "},"¦":{"ha":417,"x_min":146,"x_max":257,"o":"m 257 507 l 146 507 l 146 1063 l 257 1063 l 257 507 m 257 -368 l 146 -368 l 146 201 l 257 201 l 257 -368 z "},"§":{"ha":757,"x_min":104,"x_max":674,"o":"m 626 819 l 543 819 l 510 965 q 467 970 488 968 q 428 972 447 972 q 333 935 367 972 q 299 849 299 897 q 326 767 299 801 q 396 701 354 732 q 486 639 438 669 q 576 572 535 608 q 646 490 618 536 q 674 382 674 444 q 574 178 674 246 q 613 49 613 118 q 593 -56 613 -8 q 538 -137 574 -103 q 454 -190 503 -171 q 349 -208 406 -208 q 245 -198 296 -207 q 172 -178 194 -189 l 147 -167 l 154 56 l 243 56 l 272 -90 q 356 -97 307 -97 q 405 -87 382 -97 q 444 -60 428 -76 q 471 -21 461 -43 q 481 25 481 1 q 453 108 481 72 q 383 174 425 143 q 292 235 342 206 q 201 302 243 265 q 132 385 160 339 q 104 493 104 431 q 204 697 104 628 q 167 826 167 753 q 187 932 167 885 q 242 1013 207 979 q 326 1065 278 1046 q 432 1083 375 1083 q 535 1073 485 1082 q 608 1053 585 1064 l 633 1042 l 626 819 m 506 251 q 542 351 542 292 q 532 408 542 383 q 503 455 522 433 q 454 499 483 476 q 385 546 425 521 q 317 590 344 571 q 274 624 289 610 q 236 524 236 586 q 245 467 236 492 q 274 419 254 442 q 322 375 293 397 q 393 328 351 353 q 462 283 433 301 q 506 251 490 265 z "},"¨":{"ha":715,"x_min":139,"x_max":576,"o":"m 158 911 q 139 971 139 933 q 160 1032 139 1008 q 217 1056 182 1056 q 272 1032 251 1056 q 292 972 292 1008 q 269 912 292 935 q 213 889 247 889 q 158 911 179 889 m 443 911 q 424 971 424 933 q 445 1032 424 1008 q 501 1056 467 1056 q 556 1032 536 1056 q 576 972 576 1008 q 554 912 576 935 q 497 889 532 889 q 443 911 464 889 z "},"©":{"ha":1139,"x_min":63,"x_max":1076,"o":"m 199 124 q 63 479 63 263 q 101 681 63 588 q 206 842 139 774 q 367 948 274 910 q 569 986 460 986 q 771 950 678 986 q 931 849 864 914 q 1038 692 999 783 q 1076 492 1076 601 q 1036 291 1076 383 q 926 131 996 199 q 760 24 856 63 q 556 -14 665 -14 q 199 124 336 -14 m 279 775 q 174 486 174 665 q 201 324 174 397 q 280 197 229 250 q 402 115 331 144 q 563 86 474 86 q 725 115 651 86 q 852 198 799 144 q 935 325 906 251 q 965 486 965 399 q 935 649 965 575 q 851 775 906 722 q 724 857 797 828 q 563 886 650 886 q 279 775 386 886 m 753 575 l 675 575 l 656 669 q 569 681 615 681 q 438 483 438 681 q 576 306 438 306 q 647 321 610 306 q 704 351 683 336 l 725 367 l 763 303 l 736 278 q 711 260 729 271 q 669 240 693 250 q 619 222 646 229 q 569 215 593 215 q 385 281 451 215 q 319 478 319 347 q 338 596 319 543 q 389 686 356 649 q 470 744 422 724 q 579 765 518 765 q 620 763 599 765 q 663 755 642 760 q 701 744 683 750 q 731 733 718 739 l 756 722 l 753 575 z "},"ª":{"ha":650,"x_min":90,"x_max":581,"o":"m 115 806 l 108 944 q 324 986 240 986 q 501 826 501 986 l 501 538 l 581 518 l 581 456 l 429 449 l 407 521 q 333 466 383 493 q 244 439 283 439 q 130 478 169 439 q 90 594 90 518 q 315 749 90 749 l 390 749 l 390 818 q 367 872 390 851 q 314 892 344 892 q 206 878 258 892 l 192 806 l 115 806 m 390 674 l 324 674 q 228 656 258 674 q 199 603 199 639 q 271 531 199 531 q 330 546 300 531 q 375 578 360 561 l 390 593 l 390 674 m 101 229 l 101 326 l 581 326 l 581 229 l 101 229 z "},"«":{"ha":750,"x_min":83,"x_max":667,"o":"m 507 368 l 667 160 l 583 104 l 382 326 l 382 410 l 583 632 l 667 576 l 507 368 m 208 368 l 361 160 l 278 104 l 83 326 l 83 410 l 278 632 l 361 576 l 208 368 z "},"¬":{"ha":854,"x_min":83,"x_max":778,"o":"m 83 382 l 83 493 l 778 493 l 778 118 l 660 118 l 660 382 l 83 382 z "},"­":{"ha":521,"x_min":83,"x_max":444,"o":"m 83 319 l 83 438 l 444 438 l 444 319 l 83 319 z "},"®":{"ha":1000,"x_min":76,"x_max":924,"o":"m 190 329 q 76 625 76 443 q 108 792 76 715 q 197 926 140 869 q 332 1016 254 983 q 500 1049 410 1049 q 668 1018 590 1049 q 803 933 746 988 q 892 803 860 878 q 924 639 924 728 q 890 472 924 549 q 796 338 856 394 q 657 248 736 281 q 486 215 578 215 q 190 329 304 215 m 264 868 q 181 632 181 778 q 202 497 181 557 q 265 394 224 438 q 363 328 306 351 q 493 306 421 306 q 626 329 565 306 q 729 396 686 353 q 796 499 772 439 q 819 632 819 558 q 796 765 819 704 q 729 868 772 825 q 626 935 686 911 q 493 958 565 958 q 264 868 350 958 m 299 410 l 299 465 l 354 479 l 354 801 l 299 813 l 299 864 l 507 868 q 624 834 578 868 q 669 740 669 800 q 583 618 669 650 q 622 567 607 593 l 667 479 l 722 465 l 722 410 l 603 410 l 547 528 q 528 566 536 551 q 512 588 519 581 q 494 598 504 596 q 471 600 485 600 l 444 600 l 444 479 l 500 465 l 500 410 l 299 410 m 444 799 l 444 664 l 493 664 q 553 682 531 664 q 576 732 576 700 q 500 799 576 799 l 444 799 z "},"¯":{"ha":486,"x_min":56,"x_max":431,"o":"m 56 917 l 56 1021 l 431 1021 l 431 917 l 56 917 z "},"°":{"ha":569,"x_min":69,"x_max":500,"o":"m 283 604 q 128 659 188 604 q 69 810 69 714 q 85 897 69 857 q 130 963 101 936 q 198 1006 158 990 q 285 1021 238 1021 q 440 967 381 1021 q 500 817 500 913 q 484 731 500 769 q 440 663 468 692 q 371 619 411 635 q 283 604 331 604 m 285 938 q 199 906 232 938 q 167 815 167 875 q 197 722 167 757 q 285 688 226 688 q 373 722 343 688 q 403 815 403 757 q 370 906 403 875 q 285 938 338 938 z "},"±":{"ha":854,"x_min":76,"x_max":778,"o":"m 76 419 l 76 528 l 368 528 l 368 750 l 486 750 l 486 528 l 778 528 l 778 419 l 486 419 l 486 194 l 368 194 l 368 419 l 76 419 m 76 0 l 76 108 l 778 108 l 778 0 l 76 0 z "},"²":{"ha":542,"x_min":49,"x_max":486,"o":"m 147 792 l 64 792 l 60 943 q 247 979 160 979 q 472 813 472 979 q 421 671 472 733 q 215 488 369 608 l 486 488 l 486 389 l 49 389 l 49 485 q 149 567 106 532 q 222 626 193 601 q 263 662 250 650 q 293 692 275 674 q 318 722 311 710 q 333 749 325 733 q 347 806 347 774 q 243 889 347 889 q 157 875 199 889 l 147 792 z "},"³":{"ha":525,"x_min":28,"x_max":463,"o":"m 135 799 l 54 799 l 49 953 q 250 979 160 979 q 397 940 342 979 q 451 838 451 901 q 329 693 451 718 q 422 651 382 688 q 463 564 463 615 q 397 428 463 474 q 221 382 331 382 q 127 395 175 382 q 53 421 79 408 l 28 433 l 56 517 q 210 475 139 475 q 340 563 340 475 q 210 643 340 643 l 153 643 l 153 728 l 217 728 q 333 817 333 728 q 236 889 333 889 q 142 876 179 889 l 135 799 z "},"´":{"ha":583,"x_min":125,"x_max":451,"o":"m 451 1056 l 181 882 l 125 958 l 382 1160 l 451 1056 z "},"µ":{"ha":910,"x_min":35,"x_max":875,"o":"m 757 736 l 757 111 l 875 83 l 875 7 l 646 0 l 632 97 q 375 -14 499 -14 q 292 0 333 -14 l 292 -319 l 153 -319 l 153 625 l 35 653 l 35 729 l 292 736 l 292 235 q 324 136 294 168 q 411 104 353 104 q 519 132 469 104 q 594 186 569 160 l 618 214 l 618 625 l 500 653 l 500 729 l 757 736 z "},"¶":{"ha":875,"x_min":83,"x_max":785,"o":"m 785 965 l 785 889 l 667 861 l 667 -236 l 546 -236 l 546 861 l 436 861 l 436 -236 l 194 -236 l 194 -153 l 319 -125 l 319 425 q 151 513 218 436 q 83 704 83 590 q 160 896 83 819 q 368 972 236 972 l 546 972 l 785 965 z "},"·":{"ha":361,"x_min":88,"x_max":274,"o":"m 178 324 q 112 349 136 324 q 88 422 88 375 q 114 497 88 471 q 182 524 140 524 q 249 498 225 524 q 274 424 274 472 q 247 350 274 376 q 178 324 221 324 z "},"¸":{"ha":606,"x_min":153,"x_max":460,"o":"m 256 0 l 339 0 l 339 -60 q 428 -101 397 -69 q 460 -185 460 -133 q 449 -232 460 -210 q 418 -270 438 -254 q 374 -295 399 -286 q 322 -304 349 -304 q 172 -275 228 -304 l 153 -265 l 186 -208 q 241 -231 217 -224 q 292 -237 265 -237 q 348 -221 326 -237 q 369 -181 369 -204 q 337 -126 369 -143 q 268 -110 304 -110 l 256 -110 l 256 0 z "},"¹":{"ha":486,"x_min":21,"x_max":458,"o":"m 458 479 l 458 389 l 83 389 l 83 479 l 215 479 l 215 847 l 69 757 l 21 840 l 231 972 l 333 972 l 333 479 l 458 479 z "},"º":{"ha":688,"x_min":83,"x_max":604,"o":"m 83 701 q 103 818 83 765 q 159 908 124 871 q 244 966 194 946 q 353 986 293 986 q 540 917 475 986 q 604 719 604 849 q 585 603 604 656 q 532 515 567 551 q 448 458 497 478 q 339 438 399 438 q 151 504 218 438 q 83 701 83 571 m 486 711 q 449 844 486 799 q 346 889 413 889 q 242 844 282 889 q 201 711 201 799 q 241 579 201 624 q 347 535 281 535 q 450 579 414 535 q 486 711 486 624 m 97 229 l 97 326 l 590 326 l 590 229 l 97 229 z "},"»":{"ha":750,"x_min":83,"x_max":667,"o":"m 83 160 l 243 368 l 83 576 l 167 632 l 368 410 l 368 326 l 167 104 l 83 160 m 389 160 l 542 368 l 389 576 l 472 632 l 667 410 l 667 326 l 472 104 l 389 160 z "},"¼":{"ha":1347,"x_min":56,"x_max":1278,"o":"m 493 479 l 493 389 l 118 389 l 118 479 l 250 479 l 250 847 l 104 757 l 56 840 l 265 972 l 368 972 l 368 479 l 493 479 m 313 0 l 875 972 l 1000 972 l 438 0 l 313 0 m 763 210 l 1044 599 l 1181 585 l 1181 218 l 1278 218 l 1278 128 l 1181 128 l 1181 1 l 1063 1 l 1063 128 l 771 128 l 763 210 m 1063 467 l 883 218 l 1063 218 l 1063 467 z "},"½":{"ha":1319,"x_min":56,"x_max":1243,"o":"m 493 479 l 493 389 l 118 389 l 118 479 l 250 479 l 250 847 l 104 757 l 56 840 l 265 972 l 368 972 l 368 479 l 493 479 m 313 0 l 875 972 l 1000 972 l 438 0 l 313 0 m 904 404 l 821 404 l 817 556 q 1004 592 917 592 q 1229 425 1229 592 q 1178 283 1229 346 q 972 100 1126 221 l 1243 100 l 1243 1 l 806 1 l 806 97 q 906 179 863 144 q 978 238 950 214 q 1019 274 1007 263 q 1050 304 1032 286 q 1075 334 1068 322 q 1090 361 1082 346 q 1104 418 1104 386 q 1000 501 1104 501 q 914 488 956 501 l 904 404 z "},"¾":{"ha":1338,"x_min":49,"x_max":1268,"o":"m 156 799 l 75 799 l 69 953 q 271 979 181 979 q 417 940 363 979 q 472 838 472 901 q 350 693 472 718 q 443 651 403 688 q 483 564 483 615 q 417 428 483 474 q 242 382 351 382 q 148 395 196 382 q 74 421 100 408 l 49 433 l 76 517 q 231 475 160 475 q 361 563 361 475 q 231 643 361 643 l 174 643 l 174 728 l 238 728 q 354 817 354 728 q 257 889 354 889 q 163 876 200 889 l 156 799 m 303 0 l 865 972 l 990 972 l 428 0 l 303 0 m 753 210 l 1035 599 l 1171 585 l 1171 218 l 1268 218 l 1268 128 l 1171 128 l 1171 1 l 1053 1 l 1053 128 l 761 128 l 753 210 m 1053 467 l 874 218 l 1053 218 l 1053 467 z "},"¿":{"ha":661,"x_min":90,"x_max":550,"o":"m 397 764 q 462 738 438 764 q 486 667 486 713 q 460 596 486 622 q 393 569 433 569 q 330 595 354 569 q 306 665 306 621 q 332 738 306 711 q 397 764 358 764 m 344 425 l 469 433 q 482 301 482 339 q 467 247 482 272 q 430 197 453 221 q 378 149 407 172 q 322 101 350 125 q 236 -56 236 26 q 382 -167 236 -167 q 448 -164 417 -168 q 507 -153 479 -160 l 528 -149 l 550 -253 q 375 -285 457 -285 q 263 -274 314 -285 q 172 -237 211 -262 q 112 -170 133 -211 q 90 -69 90 -129 q 101 -1 90 -35 q 131 64 113 33 q 172 121 149 94 q 219 167 194 147 q 347 339 347 269 l 344 425 z "},"À":{"ha":1007,"x_min":7,"x_max":1000,"o":"m 7 0 l 7 83 l 121 110 l 438 965 l 576 972 l 885 110 l 1000 83 l 1000 0 l 597 0 l 597 83 l 726 110 l 674 264 l 313 264 l 258 110 l 389 83 l 389 0 l 7 0 m 496 793 l 350 375 l 636 375 l 496 793 m 611 1021 l 340 1194 l 410 1299 l 667 1097 l 611 1021 z "},"Á":{"ha":1007,"x_min":7,"x_max":1000,"o":"m 7 0 l 7 83 l 121 110 l 438 965 l 576 972 l 885 110 l 1000 83 l 1000 0 l 597 0 l 597 83 l 726 110 l 674 264 l 313 264 l 258 110 l 389 83 l 389 0 l 7 0 m 496 793 l 350 375 l 636 375 l 496 793 m 756 1194 l 485 1021 l 429 1097 l 686 1299 l 756 1194 z "},"Â":{"ha":1007,"x_min":7,"x_max":1000,"o":"m 7 0 l 7 83 l 121 110 l 438 965 l 576 972 l 885 110 l 1000 83 l 1000 0 l 597 0 l 597 83 l 726 110 l 674 264 l 313 264 l 258 110 l 389 83 l 389 0 l 7 0 m 496 793 l 350 375 l 636 375 l 496 793 m 688 1042 l 503 1171 l 313 1042 l 257 1104 l 458 1271 l 542 1278 l 743 1104 l 688 1042 z "},"Ã":{"ha":1007,"x_min":7,"x_max":1000,"o":"m 7 0 l 7 83 l 121 110 l 438 965 l 576 972 l 885 110 l 1000 83 l 1000 0 l 597 0 l 597 83 l 726 110 l 674 264 l 313 264 l 258 110 l 389 83 l 389 0 l 7 0 m 496 793 l 350 375 l 636 375 l 496 793 m 336 1118 l 288 1167 q 354 1261 313 1225 q 443 1297 396 1297 q 498 1289 471 1297 q 560 1267 525 1281 q 622 1243 594 1253 q 668 1233 650 1233 q 724 1248 701 1233 q 756 1278 746 1263 l 767 1292 l 815 1243 q 796 1206 810 1226 q 763 1162 782 1185 q 719 1128 743 1139 q 667 1118 696 1118 q 610 1127 643 1118 q 544 1149 578 1136 q 485 1171 511 1163 q 440 1179 458 1179 q 383 1163 408 1178 q 347 1133 358 1149 l 336 1118 z "},"Ä":{"ha":1007,"x_min":7,"x_max":1000,"o":"m 7 0 l 7 83 l 121 110 l 438 965 l 576 972 l 885 110 l 1000 83 l 1000 0 l 597 0 l 597 83 l 726 110 l 674 264 l 313 264 l 258 110 l 389 83 l 389 0 l 7 0 m 496 793 l 350 375 l 636 375 l 496 793 m 311 1085 q 292 1144 292 1107 q 313 1206 292 1182 q 369 1229 335 1229 q 424 1206 404 1229 q 444 1146 444 1182 q 422 1085 444 1108 q 365 1063 400 1063 q 311 1085 332 1063 m 596 1085 q 576 1144 576 1107 q 598 1206 576 1182 q 654 1229 619 1229 q 709 1206 689 1229 q 729 1146 729 1182 q 707 1085 729 1108 q 650 1063 685 1063 q 596 1085 617 1063 z "},"Å":{"ha":1007,"x_min":7,"x_max":1000,"o":"m 347 1104 q 396 1219 347 1175 q 507 1264 444 1264 q 619 1223 571 1264 q 667 1122 667 1182 q 578 968 667 1008 l 885 110 l 1000 83 l 1000 0 l 597 0 l 597 83 l 726 110 l 674 264 l 313 264 l 258 110 l 389 83 l 389 0 l 7 0 l 7 83 l 121 110 l 438 965 q 347 1104 347 1004 m 496 793 l 350 375 l 636 375 l 496 793 m 431 1107 q 507 1021 431 1021 q 562 1044 540 1021 q 583 1108 583 1068 q 507 1194 583 1194 q 452 1171 474 1194 q 431 1107 431 1147 z "},"Æ":{"ha":1332,"x_min":7,"x_max":1249,"o":"m 542 0 l 542 83 l 667 111 l 667 285 l 361 285 l 274 107 l 382 83 l 382 0 l 7 0 l 7 83 l 131 111 l 515 861 l 397 889 l 397 965 l 572 972 l 1235 972 l 1235 736 l 1144 736 l 1110 861 l 813 861 l 813 563 l 1131 563 l 1131 451 l 813 451 l 813 111 l 1131 111 l 1158 250 l 1249 250 l 1249 0 l 542 0 m 417 396 l 667 396 l 667 861 l 646 861 l 417 396 z "},"Ç":{"ha":896,"x_min":56,"x_max":847,"o":"m 826 682 l 722 682 l 685 840 q 507 868 610 868 q 290 767 365 868 q 215 478 215 665 q 297 201 215 292 q 514 111 378 111 q 580 119 544 111 q 649 140 615 128 q 710 166 682 151 q 756 194 738 181 l 792 222 l 847 132 q 790 84 822 107 q 722 42 758 61 q 644 9 685 22 q 563 -10 604 -4 l 563 -61 q 681 -185 681 -82 q 668 -235 681 -212 q 635 -272 656 -257 q 589 -297 614 -287 q 539 -306 564 -306 q 456 -297 494 -307 q 386 -272 418 -287 l 365 -262 l 401 -204 q 506 -236 468 -236 q 583 -181 583 -236 q 553 -130 583 -149 q 472 -111 524 -111 l 472 -12 q 164 117 272 -4 q 56 472 56 239 q 88 683 56 589 q 182 845 121 778 q 328 949 243 913 q 521 986 414 986 q 591 981 553 986 q 666 968 629 976 q 735 951 703 960 q 789 933 768 942 l 833 917 l 826 682 z "},"È":{"ha":868,"x_min":83,"x_max":785,"o":"m 646 861 l 347 861 l 347 563 l 667 563 l 667 451 l 347 451 l 347 111 l 667 111 l 694 250 l 785 250 l 785 0 l 83 0 l 83 83 l 201 111 l 201 861 l 83 889 l 83 965 l 347 972 l 771 972 l 771 736 l 681 736 l 646 861 m 513 1021 l 242 1194 l 311 1299 l 568 1097 l 513 1021 z "},"É":{"ha":868,"x_min":83,"x_max":785,"o":"m 646 861 l 347 861 l 347 563 l 667 563 l 667 451 l 347 451 l 347 111 l 667 111 l 694 250 l 785 250 l 785 0 l 83 0 l 83 83 l 201 111 l 201 861 l 83 889 l 83 965 l 347 972 l 771 972 l 771 736 l 681 736 l 646 861 m 660 1194 l 389 1021 l 333 1097 l 590 1299 l 660 1194 z "},"Ê":{"ha":868,"x_min":83,"x_max":785,"o":"m 646 861 l 347 861 l 347 563 l 667 563 l 667 451 l 347 451 l 347 111 l 667 111 l 694 250 l 785 250 l 785 0 l 83 0 l 83 83 l 201 111 l 201 861 l 83 889 l 83 965 l 347 972 l 771 972 l 771 736 l 681 736 l 646 861 m 632 1042 l 447 1171 l 257 1042 l 201 1104 l 403 1271 l 486 1278 l 688 1104 l 632 1042 z "},"Ë":{"ha":868,"x_min":83,"x_max":785,"o":"m 646 861 l 347 861 l 347 563 l 667 563 l 667 451 l 347 451 l 347 111 l 667 111 l 694 250 l 785 250 l 785 0 l 83 0 l 83 83 l 201 111 l 201 861 l 83 889 l 83 965 l 347 972 l 771 972 l 771 736 l 681 736 l 646 861 m 242 1085 q 222 1144 222 1107 q 244 1206 222 1182 q 300 1229 265 1229 q 355 1206 335 1229 q 375 1146 375 1182 q 353 1085 375 1108 q 296 1063 331 1063 q 242 1085 263 1063 m 526 1085 q 507 1144 507 1107 q 528 1206 507 1182 q 585 1229 550 1229 q 640 1206 619 1229 q 660 1146 660 1182 q 638 1085 660 1108 q 581 1063 615 1063 q 526 1085 547 1063 z "},"Ì":{"ha":493,"x_min":28,"x_max":438,"o":"m 438 83 l 438 0 l 56 0 l 56 83 l 174 111 l 174 861 l 56 889 l 56 965 l 438 972 l 438 889 l 319 861 l 319 111 l 438 83 m 299 1021 l 28 1194 l 97 1299 l 354 1097 l 299 1021 z "},"Í":{"ha":493,"x_min":56,"x_max":458,"o":"m 438 83 l 438 0 l 56 0 l 56 83 l 174 111 l 174 861 l 56 889 l 56 965 l 438 972 l 438 889 l 319 861 l 319 111 l 438 83 m 458 1194 l 188 1021 l 132 1097 l 389 1299 l 458 1194 z "},"Î":{"ha":493,"x_min":13,"x_max":479,"o":"m 424 1042 l 249 1171 l 68 1042 l 13 1104 l 204 1271 l 288 1278 l 479 1104 l 424 1042 m 440 83 l 440 0 l 58 0 l 58 83 l 176 111 l 176 861 l 58 889 l 58 965 l 440 972 l 440 889 l 322 861 l 322 111 l 440 83 z "},"Ï":{"ha":493,"x_min":29,"x_max":467,"o":"m 438 83 l 438 0 l 56 0 l 56 83 l 174 111 l 174 861 l 56 889 l 56 965 l 438 972 l 438 889 l 319 861 l 319 111 l 438 83 m 49 1085 q 29 1144 29 1107 q 51 1206 29 1182 q 107 1229 72 1229 q 162 1206 142 1229 q 182 1146 182 1182 q 160 1085 182 1108 q 103 1063 138 1063 q 49 1085 69 1063 m 333 1085 q 314 1144 314 1107 q 335 1206 314 1182 q 392 1229 357 1229 q 447 1206 426 1229 q 467 1146 467 1182 q 444 1085 467 1108 q 388 1063 422 1063 q 333 1085 354 1063 z "},"Ð":{"ha":1018,"x_min":83,"x_max":963,"o":"m 83 458 l 83 568 l 201 568 l 201 861 l 83 889 l 83 965 l 347 972 l 525 972 q 709 941 628 972 q 847 849 790 910 q 933 701 903 789 q 963 499 963 613 q 930 293 963 385 q 838 136 897 201 q 693 35 778 71 q 504 0 608 0 l 83 0 l 83 83 l 201 111 l 201 458 l 83 458 m 346 861 l 346 568 l 563 568 l 563 458 l 346 458 l 346 111 l 511 111 q 726 206 649 111 q 803 490 803 300 q 728 772 803 682 q 518 861 653 861 l 346 861 z "},"Ñ":{"ha":1097,"x_min":56,"x_max":1049,"o":"m 757 0 l 299 765 l 299 111 l 431 83 l 431 0 l 56 0 l 56 83 l 174 111 l 174 861 l 56 889 l 56 965 l 347 972 l 806 196 l 806 861 l 688 889 l 688 965 l 1049 972 l 1049 889 l 931 861 l 931 0 l 757 0 m 328 1064 l 279 1113 q 346 1207 304 1171 q 435 1243 388 1243 q 490 1235 463 1243 q 551 1213 517 1226 q 614 1189 586 1199 q 660 1179 642 1179 q 715 1194 693 1179 q 747 1224 738 1208 l 758 1238 l 807 1189 q 788 1151 801 1172 q 754 1108 774 1131 q 711 1074 735 1085 q 658 1064 688 1064 q 602 1073 635 1064 q 536 1095 569 1082 q 476 1117 503 1108 q 432 1125 450 1125 q 375 1109 400 1124 q 339 1079 350 1094 l 328 1064 z "},"Ò":{"ha":1049,"x_min":83,"x_max":965,"o":"m 83 475 q 115 686 83 592 q 206 848 146 781 q 348 951 265 915 q 532 986 431 986 q 714 952 633 986 q 851 854 794 918 q 936 700 907 790 q 965 497 965 610 q 932 291 965 385 q 838 130 899 197 q 693 24 778 63 q 506 -14 608 -14 q 192 113 301 -14 q 83 475 83 239 m 528 868 q 243 486 243 868 q 514 104 243 104 q 729 201 653 104 q 806 493 806 299 q 528 868 806 868 m 597 1021 l 326 1194 l 396 1299 l 653 1097 l 597 1021 z "},"Ó":{"ha":1049,"x_min":83,"x_max":965,"o":"m 83 475 q 115 686 83 592 q 206 848 146 781 q 348 951 265 915 q 532 986 431 986 q 714 952 633 986 q 851 854 794 918 q 936 700 907 790 q 965 497 965 610 q 932 291 965 385 q 838 130 899 197 q 693 24 778 63 q 506 -14 608 -14 q 192 113 301 -14 q 83 475 83 239 m 528 868 q 243 486 243 868 q 514 104 243 104 q 729 201 653 104 q 806 493 806 299 q 528 868 806 868 m 708 1194 l 438 1021 l 382 1097 l 639 1299 l 708 1194 z "},"Ô":{"ha":1049,"x_min":83,"x_max":965,"o":"m 83 475 q 115 686 83 592 q 206 848 146 781 q 348 951 265 915 q 532 986 431 986 q 714 952 633 986 q 851 854 794 918 q 936 700 907 790 q 965 497 965 610 q 932 291 965 385 q 838 130 899 197 q 693 24 778 63 q 506 -14 608 -14 q 192 113 301 -14 q 83 475 83 239 m 528 868 q 243 486 243 868 q 514 104 243 104 q 729 201 653 104 q 806 493 806 299 q 528 868 806 868 m 706 1042 l 521 1171 l 331 1042 l 275 1104 l 476 1271 l 560 1278 l 761 1104 l 706 1042 z "},"Õ":{"ha":1049,"x_min":83,"x_max":965,"o":"m 83 475 q 115 686 83 592 q 206 848 146 781 q 348 951 265 915 q 532 986 431 986 q 714 952 633 986 q 851 854 794 918 q 936 700 907 790 q 965 497 965 610 q 932 291 965 385 q 838 130 899 197 q 693 24 778 63 q 506 -14 608 -14 q 192 113 301 -14 q 83 475 83 239 m 528 868 q 243 486 243 868 q 514 104 243 104 q 729 201 653 104 q 806 493 806 299 q 528 868 806 868 m 310 1118 l 261 1167 q 328 1261 286 1225 q 417 1297 369 1297 q 472 1289 444 1297 q 533 1267 499 1281 q 596 1243 568 1253 q 642 1233 624 1233 q 697 1248 675 1233 q 729 1278 719 1263 l 740 1292 l 789 1243 q 769 1206 783 1226 q 736 1162 756 1185 q 693 1128 717 1139 q 640 1118 669 1118 q 584 1127 617 1118 q 518 1149 551 1136 q 458 1171 485 1163 q 414 1179 432 1179 q 357 1163 382 1178 q 321 1133 332 1149 l 310 1118 z "},"Ö":{"ha":1049,"x_min":83,"x_max":965,"o":"m 83 475 q 115 686 83 592 q 206 848 146 781 q 348 951 265 915 q 532 986 431 986 q 714 952 633 986 q 851 854 794 918 q 936 700 907 790 q 965 497 965 610 q 932 291 965 385 q 838 130 899 197 q 693 24 778 63 q 506 -14 608 -14 q 192 113 301 -14 q 83 475 83 239 m 528 868 q 243 486 243 868 q 514 104 243 104 q 729 201 653 104 q 806 493 806 299 q 528 868 806 868 m 325 1085 q 306 1144 306 1107 q 327 1206 306 1182 q 383 1229 349 1229 q 438 1206 418 1229 q 458 1146 458 1182 q 436 1085 458 1108 q 379 1063 414 1063 q 325 1085 346 1063 m 610 1085 q 590 1144 590 1107 q 612 1206 590 1182 q 668 1229 633 1229 q 723 1206 703 1229 q 743 1146 743 1182 q 721 1085 743 1108 q 664 1063 699 1063 q 610 1085 631 1063 z "},"×":{"ha":833,"x_min":83,"x_max":750,"o":"m 83 624 l 161 701 l 417 446 l 672 701 l 750 624 l 494 368 l 750 113 l 672 35 l 417 290 l 161 35 l 83 113 l 339 368 l 83 624 z "},"Ø":{"ha":1049,"x_min":83,"x_max":965,"o":"m 826 1090 l 917 1042 l 822 885 q 965 511 965 754 q 932 295 965 392 q 838 130 899 199 q 693 24 778 61 q 507 -14 608 -14 q 306 28 390 -14 l 201 -146 l 111 -97 l 221 85 q 83 479 83 210 q 115 688 83 594 q 206 848 147 782 q 349 950 265 914 q 535 986 432 986 q 738 942 646 986 l 826 1090 m 746 758 l 374 140 q 514 104 431 104 q 730 201 654 104 q 806 481 806 299 q 746 758 806 664 m 671 832 q 528 868 610 868 q 243 486 243 868 q 300 217 243 315 l 671 832 z "},"Ù":{"ha":1097,"x_min":56,"x_max":1042,"o":"m 924 861 l 924 396 q 838 89 924 192 q 547 -14 751 -14 q 258 81 343 -14 q 174 375 174 176 l 174 861 l 56 889 l 56 965 l 451 972 l 451 889 l 319 861 l 319 375 q 372 163 319 222 q 551 104 425 104 q 728 169 678 104 q 778 396 778 233 l 778 861 l 646 889 l 646 965 l 1042 972 l 1042 889 l 924 861 m 597 1021 l 326 1194 l 396 1299 l 653 1097 l 597 1021 z "},"Ú":{"ha":1097,"x_min":56,"x_max":1042,"o":"m 924 861 l 924 396 q 838 89 924 192 q 547 -14 751 -14 q 258 81 343 -14 q 174 375 174 176 l 174 861 l 56 889 l 56 965 l 451 972 l 451 889 l 319 861 l 319 375 q 372 163 319 222 q 551 104 425 104 q 728 169 678 104 q 778 396 778 233 l 778 861 l 646 889 l 646 965 l 1042 972 l 1042 889 l 924 861 m 769 1194 l 499 1021 l 443 1097 l 700 1299 l 769 1194 z "},"Û":{"ha":1097,"x_min":56,"x_max":1042,"o":"m 924 861 l 924 396 q 838 89 924 192 q 547 -14 751 -14 q 258 81 343 -14 q 174 375 174 176 l 174 861 l 56 889 l 56 965 l 451 972 l 451 889 l 319 861 l 319 375 q 372 163 319 222 q 551 104 425 104 q 728 169 678 104 q 778 396 778 233 l 778 861 l 646 889 l 646 965 l 1042 972 l 1042 889 l 924 861 m 735 1042 l 550 1171 l 360 1042 l 304 1104 l 506 1271 l 589 1278 l 790 1104 l 735 1042 z "},"Ü":{"ha":1097,"x_min":56,"x_max":1042,"o":"m 924 861 l 924 396 q 838 89 924 192 q 547 -14 751 -14 q 258 81 343 -14 q 174 375 174 176 l 174 861 l 56 889 l 56 965 l 451 972 l 451 889 l 319 861 l 319 375 q 372 163 319 222 q 551 104 425 104 q 728 169 678 104 q 778 396 778 233 l 778 861 l 646 889 l 646 965 l 1042 972 l 1042 889 l 924 861 m 339 1085 q 319 1144 319 1107 q 341 1206 319 1182 q 397 1229 363 1229 q 452 1206 432 1229 q 472 1146 472 1182 q 450 1085 472 1108 q 393 1063 428 1063 q 339 1085 360 1063 m 624 1085 q 604 1144 604 1107 q 626 1206 604 1182 q 682 1229 647 1229 q 737 1206 717 1229 q 757 1146 757 1182 q 735 1085 757 1108 q 678 1063 713 1063 q 624 1085 644 1063 z "},"Ý":{"ha":896,"x_min":14,"x_max":882,"o":"m 257 0 l 257 83 l 375 111 l 375 360 l 107 863 l 14 889 l 14 965 l 361 972 l 361 889 l 267 861 l 451 472 l 656 861 l 549 889 l 549 965 l 882 972 l 882 889 l 796 864 l 521 363 l 521 111 l 639 83 l 639 0 l 257 0 m 701 1194 l 431 1021 l 375 1097 l 632 1299 l 701 1194 z "},"Þ":{"ha":840,"x_min":56,"x_max":785,"o":"m 319 861 l 319 785 l 465 785 q 700 717 615 785 q 785 528 785 649 q 690 296 785 376 q 417 215 594 215 l 319 215 l 319 111 l 438 83 l 438 0 l 56 0 l 56 83 l 174 111 l 174 861 l 56 889 l 56 965 l 438 972 l 438 889 l 319 861 m 319 674 l 319 326 l 417 326 q 586 373 526 326 q 646 500 646 419 q 596 628 646 582 q 458 674 546 674 l 319 674 z "},"ß":{"ha":1057,"x_min":97,"x_max":1014,"o":"m 97 625 l 97 715 l 250 729 l 250 806 q 331 1010 250 936 q 554 1083 411 1083 q 684 1070 625 1083 q 785 1031 743 1057 q 851 963 828 1004 q 875 868 875 922 q 847 769 875 814 q 783 697 818 724 q 693 569 693 628 q 717 509 693 533 q 776 465 740 485 q 853 428 813 446 q 931 385 894 411 q 990 320 967 358 q 1014 224 1014 282 q 990 128 1014 172 q 926 53 965 85 q 834 4 886 22 q 726 -14 782 -14 q 629 -8 674 -12 q 547 8 585 -4 l 522 17 l 522 217 l 611 217 l 632 104 q 713 90 660 90 q 825 118 782 90 q 868 196 868 146 q 844 259 868 235 q 785 302 821 283 q 708 338 750 321 q 631 381 667 356 q 572 442 596 406 q 549 536 549 479 q 560 610 549 579 q 589 663 571 640 q 628 703 607 686 q 669 736 649 721 q 736 854 736 786 q 722 912 736 888 q 684 951 708 936 q 627 972 660 965 q 557 979 594 979 q 435 940 482 979 q 389 833 389 900 l 389 0 l 132 0 l 132 76 l 250 111 l 250 625 l 97 625 z "},"à":{"ha":785,"x_min":63,"x_max":743,"o":"m 104 694 q 379 750 254 750 q 567 701 501 750 q 632 535 632 651 l 632 111 l 743 83 l 743 7 l 528 0 l 499 97 q 279 -14 388 -14 q 117 40 171 -14 q 63 194 63 94 q 382 410 63 410 l 493 410 l 493 521 q 361 646 493 646 q 238 631 286 646 l 221 625 l 201 521 l 111 521 l 104 694 m 493 319 l 396 319 q 248 292 292 319 q 204 208 204 265 q 230 126 204 154 q 304 97 256 97 q 352 106 328 97 q 399 126 376 114 q 440 153 422 139 q 469 181 458 168 l 493 208 l 493 319 m 479 828 l 188 1008 l 257 1113 l 528 897 l 479 828 z "},"á":{"ha":785,"x_min":63,"x_max":743,"o":"m 104 694 q 379 750 254 750 q 567 701 501 750 q 632 535 632 651 l 632 111 l 743 83 l 743 7 l 528 0 l 499 97 q 279 -14 388 -14 q 117 40 171 -14 q 63 194 63 94 q 382 410 63 410 l 493 410 l 493 521 q 361 646 493 646 q 238 631 286 646 l 221 625 l 201 521 l 111 521 l 104 694 m 493 319 l 396 319 q 248 292 292 319 q 204 208 204 265 q 230 126 204 154 q 304 97 256 97 q 352 106 328 97 q 399 126 376 114 q 440 153 422 139 q 469 181 458 168 l 493 208 l 493 319 m 561 1008 l 269 828 l 221 897 l 492 1113 l 561 1008 z "},"â":{"ha":785,"x_min":63,"x_max":743,"o":"m 104 694 q 379 750 254 750 q 567 701 501 750 q 632 535 632 651 l 632 111 l 743 83 l 743 7 l 528 0 l 499 97 q 279 -14 388 -14 q 117 40 171 -14 q 63 194 63 94 q 382 410 63 410 l 493 410 l 493 521 q 361 646 493 646 q 238 631 286 646 l 221 625 l 201 521 l 111 521 l 104 694 m 493 319 l 396 319 q 248 292 292 319 q 204 208 204 265 q 230 126 204 154 q 304 97 256 97 q 352 106 328 97 q 399 126 376 114 q 440 153 422 139 q 469 181 458 168 l 493 208 l 493 319 m 556 836 l 364 986 l 167 836 l 111 899 l 319 1086 l 403 1093 l 611 899 l 556 836 z "},"ã":{"ha":785,"x_min":63,"x_max":743,"o":"m 104 694 q 379 750 254 750 q 567 701 501 750 q 632 535 632 651 l 632 111 l 743 83 l 743 7 l 528 0 l 499 97 q 279 -14 388 -14 q 117 40 171 -14 q 63 194 63 94 q 382 410 63 410 l 493 410 l 493 521 q 361 646 493 646 q 238 631 286 646 l 221 625 l 201 521 l 111 521 l 104 694 m 493 319 l 396 319 q 248 292 292 319 q 204 208 204 265 q 230 126 204 154 q 304 97 256 97 q 352 106 328 97 q 399 126 376 114 q 440 153 422 139 q 469 181 458 168 l 493 208 l 493 319 m 150 882 l 101 931 q 168 1025 126 989 q 257 1061 210 1061 q 312 1053 285 1061 q 374 1031 339 1044 q 436 1007 408 1017 q 482 997 464 997 q 538 1012 515 997 q 569 1042 560 1026 l 581 1056 l 629 1007 q 610 969 624 990 q 576 926 596 949 q 533 892 557 903 q 481 882 510 882 q 424 891 457 882 q 358 913 392 900 q 299 935 325 926 q 254 943 272 943 q 197 927 222 942 q 161 897 172 913 l 150 882 z "},"ä":{"ha":785,"x_min":63,"x_max":743,"o":"m 104 694 q 379 750 254 750 q 567 701 501 750 q 632 535 632 651 l 632 111 l 743 83 l 743 7 l 528 0 l 499 97 q 279 -14 388 -14 q 117 40 171 -14 q 63 194 63 94 q 382 410 63 410 l 493 410 l 493 521 q 361 646 493 646 q 238 631 286 646 l 221 625 l 201 521 l 111 521 l 104 694 m 493 319 l 396 319 q 248 292 292 319 q 204 208 204 265 q 230 126 204 154 q 304 97 256 97 q 352 106 328 97 q 399 126 376 114 q 440 153 422 139 q 469 181 458 168 l 493 208 l 493 319 m 165 911 q 146 971 146 933 q 167 1032 146 1008 q 224 1056 189 1056 q 278 1032 258 1056 q 299 972 299 1008 q 276 912 299 935 q 219 889 254 889 q 165 911 186 889 m 450 911 q 431 971 431 933 q 452 1032 431 1008 q 508 1056 474 1056 q 563 1032 543 1056 q 583 972 583 1008 q 561 912 583 935 q 504 889 539 889 q 450 911 471 889 z "},"å":{"ha":785,"x_min":63,"x_max":743,"o":"m 104 694 q 379 750 254 750 q 567 701 501 750 q 632 535 632 651 l 632 111 l 743 83 l 743 7 l 528 0 l 499 97 q 279 -14 388 -14 q 117 40 171 -14 q 63 194 63 94 q 382 410 63 410 l 493 410 l 493 521 q 361 646 493 646 q 238 631 286 646 l 221 625 l 201 521 l 111 521 l 104 694 m 493 319 l 396 319 q 248 292 292 319 q 204 208 204 265 q 230 126 204 154 q 304 97 256 97 q 352 106 328 97 q 399 126 376 114 q 440 153 422 139 q 469 181 458 168 l 493 208 l 493 319 m 279 867 q 232 979 232 908 q 246 1045 232 1015 q 283 1096 260 1075 q 335 1128 306 1117 q 393 1139 364 1139 q 451 1128 422 1139 q 501 1098 479 1118 q 538 1049 524 1078 q 551 986 551 1021 q 537 919 551 949 q 499 869 522 890 q 447 838 476 849 q 389 826 418 826 q 279 867 328 826 m 315 982 q 392 896 315 896 q 447 919 425 896 q 468 983 468 943 q 392 1069 468 1069 q 337 1046 358 1069 q 315 982 315 1022 z "},"æ":{"ha":1160,"x_min":63,"x_max":1111,"o":"m 1111 424 l 1104 350 l 625 347 q 680 165 625 233 q 826 97 735 97 q 888 103 857 97 q 945 117 918 108 q 994 135 972 125 q 1032 156 1017 146 l 1060 174 l 1108 101 q 1022 44 1061 64 q 928 6 982 25 q 813 -14 875 -14 q 539 133 615 -14 q 506 96 529 121 q 449 47 483 71 q 369 4 414 22 q 271 -14 325 -14 q 117 40 171 -14 q 63 194 63 94 q 382 410 63 410 l 493 410 l 493 521 q 361 646 493 646 q 238 631 286 646 l 221 625 l 201 521 l 111 521 l 104 694 q 375 750 254 750 q 592 653 542 750 q 819 750 681 750 q 1111 424 1111 750 m 493 319 l 396 319 q 247 293 292 319 q 201 208 201 267 q 233 122 201 147 q 301 97 264 97 q 367 110 336 97 q 420 140 397 122 q 459 174 443 157 q 483 203 475 192 l 493 215 l 493 319 m 631 451 l 964 451 q 928 589 964 536 q 811 642 892 642 q 685 588 732 642 q 631 451 638 535 z "},"ç":{"ha":708,"x_min":56,"x_max":681,"o":"m 646 507 l 556 507 l 535 625 q 410 639 481 639 q 256 575 310 639 q 201 376 201 511 q 258 169 201 242 q 417 97 315 97 q 474 103 446 97 q 528 117 503 108 q 575 138 554 126 q 608 160 596 149 l 632 181 l 681 97 q 633 63 661 81 q 572 29 604 44 q 506 3 539 14 q 444 -11 472 -8 l 444 -61 q 533 -104 500 -72 q 565 -186 565 -136 q 553 -233 565 -211 q 522 -271 542 -256 q 478 -295 503 -286 q 428 -304 453 -304 q 278 -275 336 -304 l 258 -265 l 292 -208 q 396 -237 354 -237 q 475 -181 475 -237 q 444 -129 475 -149 q 361 -110 413 -110 l 361 -11 q 133 99 210 0 q 56 368 56 197 q 81 522 56 451 q 154 642 107 592 q 268 722 201 693 q 417 750 335 750 q 474 746 444 750 q 531 736 503 742 q 582 723 558 731 q 622 708 606 715 l 653 694 l 646 507 z "},"è":{"ha":736,"x_min":56,"x_max":688,"o":"m 681 350 l 201 347 q 256 165 201 233 q 403 97 311 97 q 464 103 433 97 q 522 117 494 108 q 571 135 549 125 q 608 156 593 146 l 636 174 l 685 101 q 598 42 638 64 q 505 3 558 21 q 389 -14 451 -14 q 140 85 225 -14 q 56 357 56 185 q 81 515 56 443 q 151 640 106 588 q 258 721 196 692 q 396 750 321 750 q 688 424 688 750 l 681 350 m 207 451 l 540 451 q 504 589 540 536 q 388 642 468 642 q 261 588 308 642 q 207 451 214 535 m 479 828 l 188 1008 l 257 1113 l 528 897 l 479 828 z "},"é":{"ha":736,"x_min":56,"x_max":688,"o":"m 681 350 l 201 347 q 256 165 201 233 q 403 97 311 97 q 464 103 433 97 q 522 117 494 108 q 571 135 549 125 q 608 156 593 146 l 636 174 l 685 101 q 598 42 638 64 q 505 3 558 21 q 389 -14 451 -14 q 140 85 225 -14 q 56 357 56 185 q 81 515 56 443 q 151 640 106 588 q 258 721 196 692 q 396 750 321 750 q 688 424 688 750 l 681 350 m 207 451 l 540 451 q 504 589 540 536 q 388 642 468 642 q 261 588 308 642 q 207 451 214 535 m 583 1008 l 292 828 l 243 897 l 514 1113 l 583 1008 z "},"ê":{"ha":736,"x_min":56,"x_max":688,"o":"m 681 350 l 201 347 q 256 165 201 233 q 403 97 311 97 q 464 103 433 97 q 522 117 494 108 q 571 135 549 125 q 608 156 593 146 l 636 174 l 685 101 q 598 42 638 64 q 505 3 558 21 q 389 -14 451 -14 q 140 85 225 -14 q 56 357 56 185 q 81 515 56 443 q 151 640 106 588 q 258 721 196 692 q 396 750 321 750 q 688 424 688 750 l 681 350 m 207 451 l 540 451 q 504 589 540 536 q 388 642 468 642 q 261 588 308 642 q 207 451 214 535 m 569 835 l 378 985 l 181 835 l 125 897 l 333 1085 l 417 1092 l 625 897 l 569 835 z "},"ë":{"ha":736,"x_min":56,"x_max":688,"o":"m 681 350 l 201 347 q 256 165 201 233 q 403 97 311 97 q 464 103 433 97 q 522 117 494 108 q 571 135 549 125 q 608 156 593 146 l 636 174 l 685 101 q 598 42 638 64 q 505 3 558 21 q 389 -14 451 -14 q 140 85 225 -14 q 56 357 56 185 q 81 515 56 443 q 151 640 106 588 q 258 721 196 692 q 396 750 321 750 q 688 424 688 750 l 681 350 m 207 451 l 540 451 q 504 589 540 536 q 388 642 468 642 q 261 588 308 642 q 207 451 214 535 m 179 911 q 160 971 160 933 q 181 1032 160 1008 q 238 1056 203 1056 q 292 1032 272 1056 q 313 972 313 1008 q 290 912 313 935 q 233 889 268 889 q 179 911 200 889 m 464 911 q 444 971 444 933 q 466 1032 444 1008 q 522 1056 488 1056 q 577 1032 557 1056 q 597 972 597 1008 q 575 912 597 935 q 518 889 553 889 q 464 911 485 889 z "},"ì":{"ha":465,"x_min":22,"x_max":417,"o":"m 313 736 l 313 111 l 417 76 l 417 0 l 56 0 l 56 76 l 174 111 l 174 625 l 56 653 l 56 729 l 313 736 m 314 828 l 22 1008 l 92 1113 l 363 897 l 314 828 z "},"í":{"ha":465,"x_min":56,"x_max":431,"o":"m 313 736 l 313 111 l 417 76 l 417 0 l 56 0 l 56 76 l 174 111 l 174 625 l 56 653 l 56 729 l 313 736 m 431 1021 l 139 840 l 90 910 l 361 1125 l 431 1021 z "},"î":{"ha":465,"x_min":-7,"x_max":465,"o":"m 313 736 l 313 111 l 417 76 l 417 0 l 56 0 l 56 76 l 174 111 l 174 625 l 56 653 l 56 729 l 313 736 m 410 833 l 232 983 l 49 833 l -7 896 l 188 1083 l 271 1090 l 465 896 l 410 833 z "},"ï":{"ha":465,"x_min":21,"x_max":444,"o":"m 313 736 l 313 111 l 417 76 l 417 0 l 56 0 l 56 76 l 174 111 l 174 625 l 56 653 l 56 729 l 313 736 m 40 911 q 21 971 21 933 q 42 1032 21 1008 q 99 1056 64 1056 q 153 1032 133 1056 q 174 972 174 1008 q 151 912 174 935 q 94 889 129 889 q 40 911 61 889 m 311 911 q 292 971 292 933 q 313 1032 292 1008 q 369 1056 335 1056 q 424 1032 404 1056 q 444 972 444 1008 q 422 912 444 935 q 365 889 400 889 q 311 911 332 889 z "},"ð":{"ha":826,"x_min":63,"x_max":743,"o":"m 654 1010 l 524 939 q 743 368 743 740 q 718 212 743 282 q 647 92 693 142 q 538 14 601 42 q 394 -14 474 -14 q 151 77 239 -14 q 63 343 63 168 q 86 499 63 431 q 154 616 110 568 q 261 690 199 664 q 403 715 324 715 q 574 657 499 715 q 418 882 524 796 l 236 785 l 181 861 l 331 942 q 194 1000 268 976 l 236 1088 q 442 1003 349 1060 l 597 1088 l 654 1010 m 410 604 q 208 347 208 604 q 256 163 208 229 q 404 97 304 97 q 551 161 504 97 q 597 354 597 225 q 410 604 597 604 z "},"ñ":{"ha":924,"x_min":56,"x_max":882,"o":"m 285 736 l 297 638 q 336 668 311 649 q 395 706 361 688 q 470 737 429 724 q 556 750 511 750 q 723 684 668 750 q 778 500 778 618 l 778 111 l 882 76 l 882 0 l 549 0 l 549 76 l 639 111 l 639 486 q 610 597 639 561 q 521 632 581 632 q 463 624 492 632 q 410 604 435 617 q 367 577 386 592 q 336 549 349 563 l 313 521 l 313 111 l 403 76 l 403 0 l 56 0 l 56 76 l 174 111 l 174 625 l 56 653 l 56 729 l 285 736 m 246 882 l 197 931 q 264 1025 222 989 q 353 1061 306 1061 q 408 1053 381 1061 q 469 1031 435 1044 q 532 1007 504 1017 q 578 997 560 997 q 633 1012 611 997 q 665 1042 656 1026 l 676 1056 l 725 1007 q 706 969 719 990 q 672 926 692 949 q 629 892 653 903 q 576 882 606 882 q 520 891 553 882 q 454 913 488 900 q 394 935 421 926 q 350 943 368 943 q 293 927 318 942 q 257 897 268 913 l 246 882 z "},"ò":{"ha":792,"x_min":56,"x_max":736,"o":"m 56 357 q 81 519 56 446 q 154 643 107 592 q 266 722 201 694 q 408 750 331 750 q 650 651 564 750 q 736 378 736 553 q 711 220 736 292 q 641 97 686 149 q 531 15 596 44 q 388 -14 467 -14 q 142 81 229 -14 q 56 357 56 175 m 403 639 q 201 368 201 639 q 396 97 201 97 q 544 167 497 97 q 590 375 590 236 q 403 639 590 639 m 493 828 l 201 1008 l 271 1113 l 542 897 l 493 828 z "},"ó":{"ha":792,"x_min":56,"x_max":736,"o":"m 56 357 q 81 519 56 446 q 154 643 107 592 q 266 722 201 694 q 408 750 331 750 q 650 651 564 750 q 736 378 736 553 q 711 220 736 292 q 641 97 686 149 q 531 15 596 44 q 388 -14 467 -14 q 142 81 229 -14 q 56 357 56 175 m 403 639 q 201 368 201 639 q 396 97 201 97 q 544 167 497 97 q 590 375 590 236 q 403 639 590 639 m 589 1008 l 297 828 l 249 897 l 519 1113 l 589 1008 z "},"ô":{"ha":792,"x_min":56,"x_max":736,"o":"m 56 357 q 81 519 56 446 q 154 643 107 592 q 266 722 201 694 q 408 750 331 750 q 650 651 564 750 q 736 378 736 553 q 711 220 736 292 q 641 97 686 149 q 531 15 596 44 q 388 -14 467 -14 q 142 81 229 -14 q 56 357 56 175 m 403 639 q 201 368 201 639 q 396 97 201 97 q 544 167 497 97 q 590 375 590 236 q 403 639 590 639 m 597 835 l 406 985 l 208 835 l 153 897 l 361 1085 l 444 1092 l 653 897 l 597 835 z "},"õ":{"ha":792,"x_min":56,"x_max":736,"o":"m 56 357 q 81 519 56 446 q 154 643 107 592 q 266 722 201 694 q 408 750 331 750 q 650 651 564 750 q 736 378 736 553 q 711 220 736 292 q 641 97 686 149 q 531 15 596 44 q 388 -14 467 -14 q 142 81 229 -14 q 56 357 56 175 m 403 639 q 201 368 201 639 q 396 97 201 97 q 544 167 497 97 q 590 375 590 236 q 403 639 590 639 m 181 882 l 132 931 q 199 1025 157 989 q 288 1061 240 1061 q 342 1053 315 1061 q 404 1031 369 1044 q 467 1007 439 1017 q 513 997 494 997 q 568 1012 546 997 q 600 1042 590 1026 l 611 1056 l 660 1007 q 640 969 654 990 q 607 926 626 949 q 564 892 588 903 q 511 882 540 882 q 455 891 488 882 q 389 913 422 900 q 329 935 356 926 q 285 943 303 943 q 228 927 253 942 q 192 897 203 913 l 181 882 z "},"ö":{"ha":792,"x_min":56,"x_max":736,"o":"m 56 357 q 81 519 56 446 q 154 643 107 592 q 266 722 201 694 q 408 750 331 750 q 650 651 564 750 q 736 378 736 553 q 711 220 736 292 q 641 97 686 149 q 531 15 596 44 q 388 -14 467 -14 q 142 81 229 -14 q 56 357 56 175 m 403 639 q 201 368 201 639 q 396 97 201 97 q 544 167 497 97 q 590 375 590 236 q 403 639 590 639 m 193 911 q 174 971 174 933 q 195 1032 174 1008 q 251 1056 217 1056 q 306 1032 286 1056 q 326 972 326 1008 q 304 912 326 935 q 247 889 282 889 q 193 911 214 889 m 478 911 q 458 971 458 933 q 480 1032 458 1008 q 536 1056 501 1056 q 591 1032 571 1056 q 611 972 611 1008 q 589 912 611 935 q 532 889 567 889 q 478 911 499 889 z "},"÷":{"ha":861,"x_min":69,"x_max":792,"o":"m 429 -14 q 365 12 389 -14 q 340 82 340 38 q 366 154 340 128 q 432 181 392 181 q 497 155 472 181 q 521 83 521 129 q 495 13 521 39 q 429 -14 469 -14 m 429 556 q 365 581 389 556 q 340 651 340 607 q 366 724 340 697 q 432 750 392 750 q 497 724 472 750 q 521 653 521 699 q 495 582 521 608 q 429 556 469 556 m 69 313 l 69 424 l 792 424 l 792 313 l 69 313 z "},"ø":{"ha":806,"x_min":63,"x_max":743,"o":"m 69 -97 l 165 64 q 63 349 63 160 q 89 517 63 443 q 162 644 115 592 q 274 723 208 696 q 417 750 339 750 q 558 722 492 750 l 646 868 l 729 819 l 639 668 q 743 388 743 569 q 718 223 743 297 q 648 96 693 149 q 539 15 603 43 q 396 -14 475 -14 q 247 13 314 -14 l 153 -146 l 69 -97 m 410 639 q 208 368 208 639 q 240 190 208 257 l 497 619 q 410 639 456 639 m 403 97 q 597 358 597 97 q 565 546 597 479 l 310 118 q 403 97 349 97 z "},"ù":{"ha":903,"x_min":28,"x_max":868,"o":"m 750 736 l 750 111 l 868 83 l 868 7 l 639 0 l 625 97 q 493 16 567 46 q 368 -14 419 -14 q 201 51 257 -14 q 146 235 146 117 l 146 625 l 28 653 l 28 729 l 285 736 l 285 249 q 314 140 285 175 q 403 104 343 104 q 513 132 463 104 q 586 186 563 160 l 611 214 l 611 625 l 493 653 l 493 729 l 750 736 m 535 828 l 243 1008 l 313 1113 l 583 897 l 535 828 z "},"ú":{"ha":903,"x_min":28,"x_max":868,"o":"m 750 736 l 750 111 l 868 83 l 868 7 l 639 0 l 625 97 q 493 16 567 46 q 368 -14 419 -14 q 201 51 257 -14 q 146 235 146 117 l 146 625 l 28 653 l 28 729 l 285 736 l 285 249 q 314 140 285 175 q 403 104 343 104 q 513 132 463 104 q 586 186 563 160 l 611 214 l 611 625 l 493 653 l 493 729 l 750 736 m 639 1008 l 347 828 l 299 897 l 569 1113 l 639 1008 z "},"û":{"ha":903,"x_min":28,"x_max":868,"o":"m 750 736 l 750 111 l 868 83 l 868 7 l 639 0 l 625 97 q 493 16 567 46 q 368 -14 419 -14 q 201 51 257 -14 q 146 235 146 117 l 146 625 l 28 653 l 28 729 l 285 736 l 285 249 q 314 140 285 175 q 403 104 343 104 q 513 132 463 104 q 586 186 563 160 l 611 214 l 611 625 l 493 653 l 493 729 l 750 736 m 646 835 l 454 985 l 257 835 l 201 897 l 410 1085 l 493 1092 l 701 897 l 646 835 z "},"ü":{"ha":903,"x_min":28,"x_max":868,"o":"m 750 736 l 750 111 l 868 83 l 868 7 l 639 0 l 625 97 q 493 16 567 46 q 368 -14 419 -14 q 201 51 257 -14 q 146 235 146 117 l 146 625 l 28 653 l 28 729 l 285 736 l 285 249 q 314 140 285 175 q 403 104 343 104 q 513 132 463 104 q 586 186 563 160 l 611 214 l 611 625 l 493 653 l 493 729 l 750 736 m 235 911 q 215 971 215 933 q 237 1032 215 1008 q 293 1056 258 1056 q 348 1032 328 1056 q 368 972 368 1008 q 346 912 368 935 q 289 889 324 889 q 235 911 256 889 m 519 911 q 500 971 500 933 q 522 1032 500 1008 q 578 1056 543 1056 q 633 1032 613 1056 q 653 972 653 1008 q 631 912 653 935 q 574 889 608 889 q 519 911 540 889 z "},"ý":{"ha":799,"x_min":14,"x_max":794,"o":"m 340 736 l 340 653 l 243 639 l 410 153 l 563 632 l 465 653 l 465 729 l 794 736 l 794 653 l 704 639 l 507 89 q 404 -153 438 -93 q 132 -333 300 -332 l 43 -326 l 56 -229 l 125 -229 q 244 -172 193 -229 q 346 -3 294 -115 l 97 632 l 14 653 l 14 729 l 340 736 m 674 1008 l 382 828 l 333 897 l 604 1113 l 674 1008 z "},"þ":{"ha":854,"x_min":35,"x_max":792,"o":"m 438 -243 l 438 -319 l 42 -319 l 42 -243 l 153 -215 l 153 958 l 35 986 l 35 1063 l 292 1069 l 292 667 q 331 697 307 682 q 383 723 356 711 q 440 742 411 735 q 493 750 468 750 q 716 653 640 750 q 792 379 792 557 q 769 221 792 293 q 699 97 746 149 q 581 15 651 44 q 417 -14 511 -14 q 359 -11 386 -14 q 308 0 332 -8 l 292 6 l 292 -215 l 438 -243 m 292 542 l 292 125 q 438 97 335 97 q 646 375 646 97 q 601 568 646 497 q 465 639 557 639 q 366 615 413 639 q 292 542 319 590 z "},"ÿ":{"ha":799,"x_min":14,"x_max":794,"o":"m 340 736 l 340 653 l 243 639 l 410 153 l 563 632 l 465 653 l 465 729 l 794 736 l 794 653 l 704 639 l 507 89 q 404 -153 438 -93 q 132 -333 300 -332 l 43 -326 l 56 -229 l 125 -229 q 244 -172 193 -229 q 346 -3 294 -115 l 97 632 l 14 653 l 14 729 l 340 736 m 207 911 q 188 971 188 933 q 209 1032 188 1008 q 265 1056 231 1056 q 320 1032 300 1056 q 340 972 340 1008 q 318 912 340 935 q 261 889 296 889 q 207 911 228 889 m 492 911 q 472 971 472 933 q 494 1032 472 1008 q 550 1056 515 1056 q 605 1032 585 1056 q 625 972 625 1008 q 603 912 625 935 q 546 889 581 889 q 492 911 513 889 z "},"ą":{"ha":792,"x_min":63,"x_max":743,"o":"m 743 83 l 743 7 q 672 -32 703 -10 q 620 -78 642 -54 q 588 -123 599 -101 q 576 -160 576 -144 q 594 -206 576 -190 q 639 -222 611 -222 l 701 -212 l 715 -278 q 664 -299 690 -293 q 611 -306 638 -306 q 508 -273 551 -306 q 465 -181 465 -240 q 483 -107 465 -139 q 524 -53 500 -75 q 572 -17 547 -31 q 608 3 596 -4 l 528 0 l 499 97 q 279 -14 388 -14 q 117 40 171 -14 q 63 194 63 94 q 382 410 63 410 l 493 410 l 493 521 q 361 646 493 646 q 238 631 286 646 l 221 625 l 201 521 l 111 521 l 104 694 q 379 750 254 750 q 567 701 501 750 q 632 535 632 651 l 632 111 l 743 83 m 469 181 l 493 208 l 493 319 l 396 319 q 248 292 292 319 q 204 208 204 265 q 230 126 204 154 q 304 97 256 97 q 352 106 328 97 q 399 126 376 114 q 440 153 422 139 q 469 181 458 168 z "},"ę":{"ha":736,"x_min":56,"x_max":688,"o":"m 636 174 l 685 101 q 587 31 631 67 q 513 -40 543 -6 q 467 -106 483 -75 q 450 -160 450 -137 q 467 -206 450 -190 q 513 -222 485 -222 l 575 -212 l 589 -278 q 537 -299 564 -293 q 483 -306 510 -306 q 381 -273 424 -306 q 339 -174 339 -240 q 433 -10 339 -96 q 389 -14 410 -14 q 140 85 225 -14 q 56 357 56 185 q 81 515 56 443 q 151 640 106 588 q 258 721 196 692 q 396 750 321 750 q 688 424 688 750 l 681 350 l 201 347 q 256 165 201 233 q 403 97 311 97 q 464 103 433 97 q 522 117 494 108 q 572 135 550 125 q 608 156 594 146 l 636 174 m 207 451 l 540 451 q 504 589 540 536 q 388 642 468 642 q 261 588 308 642 q 207 451 214 535 z "},"ı":{"ha":465,"x_min":56,"x_max":417,"o":"m 313 736 l 313 111 l 417 76 l 417 0 l 56 0 l 56 76 l 174 111 l 174 625 l 56 653 l 56 729 l 313 736 z "},"Ł":{"ha":750,"x_min":35,"x_max":736,"o":"m 326 861 l 326 558 l 528 656 l 557 551 l 326 440 l 326 111 l 611 111 l 639 271 l 736 271 l 736 0 l 63 0 l 63 83 l 181 111 l 181 379 l 64 324 l 35 428 l 181 497 l 181 861 l 63 889 l 63 965 l 444 972 l 444 889 l 326 861 z "},"ł":{"ha":501,"x_min":28,"x_max":494,"o":"m 329 1069 l 329 601 l 467 667 l 494 563 l 329 483 l 329 111 l 468 76 l 468 0 l 69 0 l 69 76 l 188 111 l 188 426 l 57 364 l 28 467 l 188 543 l 188 958 l 69 986 l 69 1063 l 329 1069 z "},"Œ":{"ha":1306,"x_min":83,"x_max":1215,"o":"m 535 979 l 743 972 l 1201 979 l 1201 736 l 1111 736 l 1076 861 l 778 861 l 778 563 l 1097 563 l 1097 451 l 778 451 l 778 111 l 1097 111 l 1125 250 l 1215 250 l 1215 0 l 729 0 l 507 -7 q 192 117 301 -7 q 83 475 83 240 q 115 685 83 592 q 206 844 147 778 q 347 944 264 910 q 535 979 431 979 m 632 861 q 574 866 600 864 q 528 868 549 868 q 243 486 243 868 q 514 104 243 104 l 632 111 l 632 861 z "},"œ":{"ha":1271,"x_min":56,"x_max":1222,"o":"m 672 606 q 931 750 760 750 q 1222 424 1222 750 l 1215 350 l 736 347 q 791 165 736 233 q 938 97 846 97 q 999 103 968 97 q 1056 117 1029 108 q 1106 135 1083 125 q 1143 156 1128 146 l 1171 174 l 1219 101 q 1133 43 1172 63 q 1040 5 1093 24 q 924 -14 986 -14 q 663 129 742 -14 q 389 -14 569 -14 q 142 81 229 -14 q 56 357 56 175 q 81 519 56 446 q 154 643 107 592 q 268 722 201 694 q 417 750 335 750 q 672 606 582 750 m 403 639 q 201 368 201 639 q 396 97 201 97 q 597 375 597 97 q 550 568 597 497 q 403 639 503 639 m 742 451 l 1075 451 q 1039 589 1075 536 q 922 642 1003 642 q 796 588 843 642 q 742 451 749 535 z "},"Š":{"ha":833,"x_min":97,"x_max":746,"o":"m 208 285 l 236 139 q 304 115 261 125 q 389 104 347 104 q 469 115 431 104 q 538 144 508 125 q 584 191 567 164 q 601 253 601 218 q 579 320 601 293 q 522 367 557 347 q 442 403 486 388 q 351 435 397 418 q 258 477 303 456 q 177 530 213 499 q 121 606 142 561 q 100 715 100 650 q 127 836 100 785 q 199 921 154 888 q 305 970 244 954 q 432 986 365 986 q 497 982 463 986 q 565 972 532 978 q 628 958 599 965 q 678 944 657 950 l 722 931 l 715 694 l 625 694 l 578 843 q 501 861 539 856 q 422 867 463 867 q 349 856 382 867 q 294 828 317 846 q 258 788 271 810 q 246 742 246 765 q 285 650 247 683 q 378 593 322 617 q 498 549 433 569 q 617 497 563 528 q 709 415 672 465 q 746 285 746 365 q 718 157 746 213 q 642 63 690 101 q 526 5 593 25 q 383 -15 460 -15 q 317 -11 353 -15 q 248 -1 282 -7 q 185 13 214 6 q 136 28 156 21 l 97 42 l 97 285 l 208 285 m 410 1139 l 604 1292 l 653 1229 l 451 1035 l 368 1035 l 157 1229 l 215 1292 l 410 1139 z "},"š":{"ha":660,"x_min":64,"x_max":590,"o":"m 64 222 l 161 222 l 176 103 q 220 94 190 97 q 279 90 250 90 q 410 117 369 90 q 451 200 451 144 q 423 260 451 238 q 351 297 394 282 q 258 328 308 313 q 164 367 207 343 q 92 431 121 392 q 64 533 64 469 q 133 692 64 638 q 318 750 203 747 q 417 742 367 749 q 521 719 468 736 l 556 708 l 551 521 l 461 521 l 439 629 q 396 640 428 633 q 328 646 364 646 q 281 642 303 646 q 241 628 258 638 q 213 600 224 618 q 203 556 203 582 q 231 492 203 515 q 303 453 260 469 q 397 421 346 436 q 490 381 447 406 q 562 319 533 357 q 590 221 590 282 q 565 118 590 163 q 498 44 540 74 q 399 -1 456 14 q 279 -15 343 -15 q 230 -13 256 -15 q 179 -8 204 -11 q 133 0 154 -4 q 97 8 111 4 l 65 17 l 64 222 m 321 939 l 515 1092 l 564 1029 l 363 835 l 279 835 l 68 1029 l 126 1092 l 321 939 z "},"Ÿ":{"ha":896,"x_min":14,"x_max":882,"o":"m 257 0 l 257 83 l 375 111 l 375 360 l 107 863 l 14 889 l 14 965 l 361 972 l 361 889 l 267 861 l 451 472 l 656 861 l 549 889 l 549 965 l 882 972 l 882 889 l 796 864 l 521 363 l 521 111 l 639 83 l 639 0 l 257 0 m 242 1085 q 222 1144 222 1107 q 244 1206 222 1182 q 300 1229 265 1229 q 355 1206 335 1229 q 375 1146 375 1182 q 353 1085 375 1108 q 296 1063 331 1063 q 242 1085 263 1063 m 526 1085 q 507 1144 507 1107 q 528 1206 507 1182 q 585 1229 550 1229 q 640 1206 619 1229 q 660 1146 660 1182 q 638 1085 660 1108 q 581 1063 615 1063 q 526 1085 547 1063 z "},"":{"ha":854,"x_min":56,"x_max":799,"o":"m 97 972 l 799 972 l 799 875 l 243 111 l 674 111 l 701 250 l 792 250 l 792 0 l 56 0 l 56 97 l 611 861 l 222 861 l 188 722 l 97 722 l 97 972 m 424 1139 l 618 1292 l 667 1229 l 465 1035 l 382 1035 l 171 1229 l 229 1292 l 424 1139 z "},"":{"ha":701,"x_min":90,"x_max":653,"o":"m 653 736 l 653 632 l 246 104 l 529 104 l 549 215 l 646 215 l 646 0 l 90 0 l 90 104 l 496 632 l 235 632 l 215 528 l 118 528 l 118 736 l 653 736 m 375 939 l 569 1092 l 618 1029 l 417 835 l 333 835 l 122 1029 l 181 1092 l 375 939 z "},"ƒ":{"ha":611,"x_min":-83,"x_max":583,"o":"m -69 -167 l 7 -167 q 99 -134 71 -167 q 132 -35 126 -101 l 182 521 l 63 521 l 65 611 l 192 625 l 208 813 q 288 1012 219 940 q 479 1083 357 1083 l 583 1075 l 576 972 l 479 972 q 388 940 415 972 q 354 840 360 907 l 338 625 l 535 625 l 532 521 l 328 521 l 281 -7 q 199 -206 269 -135 q 7 -278 129 -278 l -83 -269 l -69 -167 z "},"ˆ":{"ha":722,"x_min":118,"x_max":604,"o":"m 549 903 l 364 1032 l 174 903 l 118 965 l 319 1132 l 403 1139 l 604 965 l 549 903 z "},"ˇ":{"ha":718,"x_min":111,"x_max":607,"o":"m 364 986 l 558 1139 l 607 1076 l 406 882 l 322 882 l 111 1076 l 169 1139 l 364 986 z "},"˘":{"ha":611,"x_min":111,"x_max":500,"o":"m 417 1063 l 500 1069 q 484 985 500 1024 q 441 919 468 947 q 378 876 414 892 q 303 861 343 861 q 227 876 263 861 q 166 919 192 892 q 126 983 140 946 q 111 1063 111 1019 l 194 1069 q 202 1038 194 1056 q 224 1003 210 1019 q 257 976 238 988 q 301 965 276 965 q 378 990 353 965 q 411 1039 404 1014 l 417 1063 z "},"˙":{"ha":403,"x_min":125,"x_max":278,"o":"m 144 911 q 125 971 125 933 q 147 1032 125 1008 q 203 1056 168 1056 q 258 1032 238 1056 q 278 972 278 1008 q 256 912 278 935 q 199 889 233 889 q 144 911 165 889 z "},"˚":{"ha":542,"x_min":111,"x_max":431,"o":"m 158 867 q 111 979 111 908 q 125 1045 111 1015 q 162 1096 139 1075 q 214 1128 185 1117 q 272 1139 243 1139 q 330 1128 301 1139 q 381 1098 358 1118 q 417 1049 403 1078 q 431 986 431 1021 q 416 919 431 949 q 378 869 401 890 q 326 838 356 849 q 268 826 297 826 q 158 867 207 826 m 194 982 q 271 896 194 896 q 326 919 304 896 q 347 983 347 943 q 271 1069 347 1069 q 216 1046 238 1069 q 194 982 194 1022 z "},"˛":{"ha":431,"x_min":97,"x_max":375,"o":"m 333 -212 l 347 -278 q 295 -298 322 -290 q 242 -306 268 -306 q 138 -272 179 -306 q 97 -174 97 -237 q 110 -114 97 -143 q 145 -63 122 -85 q 192 -25 168 -42 q 233 0 215 -8 l 250 7 l 375 7 q 304 -32 335 -10 q 251 -78 274 -54 q 219 -123 229 -101 q 208 -160 208 -144 q 226 -206 208 -190 q 271 -222 243 -222 l 333 -212 z "},"˜":{"ha":785,"x_min":132,"x_max":660,"o":"m 181 882 l 132 931 q 199 1025 157 989 q 288 1061 240 1061 q 342 1053 315 1061 q 404 1031 369 1044 q 467 1007 439 1017 q 513 997 494 997 q 568 1012 546 997 q 600 1042 590 1026 l 611 1056 l 660 1007 q 640 969 654 990 q 607 926 626 949 q 564 892 588 903 q 511 882 540 882 q 455 891 488 882 q 389 913 422 900 q 329 935 356 926 q 285 943 303 943 q 228 927 253 942 q 192 897 203 913 l 181 882 z "},"˝":{"ha":806,"x_min":118,"x_max":708,"o":"m 708 1090 l 458 882 l 396 951 l 625 1181 l 708 1090 m 431 1090 l 181 882 l 118 951 l 347 1181 l 431 1090 z "},"Δ":{"ha":925,"x_min":28,"x_max":897,"o":"m 28 99 l 394 1000 l 531 1000 l 897 97 l 897 0 l 28 0 l 28 99 m 457 843 l 165 111 l 749 111 l 457 843 z "},"Ω":{"ha":1049,"x_min":90,"x_max":958,"o":"m 90 111 l 274 111 q 202 188 235 144 q 147 283 169 232 q 110 392 124 335 q 97 507 97 449 q 128 706 97 617 q 216 857 160 794 q 352 953 272 919 q 531 986 432 986 q 709 953 631 986 q 841 860 788 921 q 923 713 894 799 q 951 521 951 626 q 938 403 951 461 q 901 292 925 344 q 844 193 876 239 q 772 113 811 147 l 958 118 l 958 0 l 604 0 l 606 90 q 639 111 621 97 q 676 144 657 125 q 711 185 694 163 q 740 228 728 207 q 785 347 765 271 q 806 514 806 422 q 731 778 806 688 q 526 868 657 868 q 319 781 396 868 q 243 514 243 694 q 267 328 243 406 q 324 201 292 251 q 390 125 357 151 q 443 90 424 99 l 444 0 l 90 0 l 90 111 z "},"π":{"ha":958,"x_min":56,"x_max":910,"o":"m 792 94 q 875 111 825 94 l 910 42 q 743 -14 833 -14 q 634 33 678 -14 q 590 188 590 81 l 590 625 l 306 625 l 306 0 l 174 0 l 174 625 l 56 653 l 56 729 l 306 736 l 840 736 l 840 653 l 722 632 l 722 179 q 792 94 722 94 z "},"–":{"ha":694,"x_min":0,"x_max":694,"o":"m 0 396 l 0 507 l 694 507 l 694 396 l 0 396 z "},"—":{"ha":1347,"x_min":0,"x_max":1347,"o":"m 0 396 l 0 507 l 1347 507 l 1347 396 l 0 396 z "},"‘":{"ha":389,"x_min":90,"x_max":313,"o":"m 181 689 q 90 792 90 689 q 250 1083 90 914 l 313 1031 q 239 883 239 932 q 244 865 239 875 q 256 840 249 854 q 267 808 263 825 q 271 775 271 790 q 246 715 271 742 q 181 689 221 689 z "},"’":{"ha":389,"x_min":76,"x_max":299,"o":"m 76 742 q 150 889 150 840 q 145 907 150 897 q 134 932 140 917 q 123 964 128 947 q 118 997 118 981 q 143 1057 118 1031 q 208 1083 168 1083 q 299 981 299 1083 q 139 689 299 858 l 76 742 z "},"‚":{"ha":389,"x_min":76,"x_max":299,"o":"m 76 -189 q 150 -42 150 -90 q 146 -26 150 -37 q 134 1 142 -14 q 122 33 126 17 q 118 67 118 50 q 143 126 118 100 q 208 153 168 153 q 299 50 299 153 q 139 -242 299 -72 l 76 -189 z "},"“":{"ha":660,"x_min":90,"x_max":583,"o":"m 451 689 q 361 792 361 689 q 521 1083 361 914 l 583 1031 q 510 883 510 932 q 515 865 510 875 q 526 840 519 854 q 538 808 533 825 q 542 775 542 790 q 517 715 542 742 q 451 689 492 689 m 181 689 q 90 792 90 689 q 250 1083 90 914 l 313 1031 q 239 883 239 932 q 244 865 239 875 q 256 840 249 854 q 267 808 263 825 q 271 775 271 790 q 246 715 271 742 q 181 689 221 689 z "},"”":{"ha":660,"x_min":76,"x_max":569,"o":"m 76 742 q 150 889 150 840 q 146 906 150 896 q 134 932 142 917 q 122 964 126 947 q 118 997 118 981 q 143 1057 118 1031 q 208 1083 168 1083 q 299 981 299 1083 q 139 689 299 858 l 76 742 m 347 742 q 421 889 421 840 q 417 906 421 896 q 405 932 413 917 q 393 964 397 947 q 389 997 389 981 q 414 1057 389 1031 q 479 1083 439 1083 q 569 981 569 1083 q 410 689 569 858 l 347 742 z "},"„":{"ha":660,"x_min":76,"x_max":569,"o":"m 76 -189 q 150 -42 150 -90 q 146 -26 150 -37 q 134 1 142 -14 q 122 33 126 17 q 118 67 118 50 q 143 126 118 100 q 208 153 168 153 q 299 50 299 153 q 139 -242 299 -72 l 76 -189 m 347 -189 q 421 -42 421 -90 q 416 -26 421 -37 q 404 1 411 -14 q 393 33 397 17 q 389 67 389 50 q 414 126 389 100 q 479 153 439 153 q 569 50 569 153 q 410 -242 569 -72 l 347 -189 z "},"†":{"ha":688,"x_min":56,"x_max":632,"o":"m 403 1049 l 396 833 l 632 833 l 632 736 l 343 701 l 56 736 l 56 833 l 290 833 l 285 1042 l 403 1049 m 271 632 l 285 56 l 343 0 l 403 56 l 417 632 l 343 618 l 271 632 z "},"‡":{"ha":688,"x_min":56,"x_max":632,"o":"m 56 736 l 56 833 l 290 833 l 285 1042 l 403 1049 l 396 833 l 632 833 l 632 736 l 343 701 l 56 736 m 276 421 l 285 56 l 343 0 l 403 56 l 411 421 l 343 407 l 276 421 m 113 550 l 113 651 l 343 618 l 574 651 l 574 550 l 343 492 l 113 550 z "},"•":{"ha":701,"x_min":118,"x_max":563,"o":"m 183 281 q 118 438 118 346 q 135 524 118 483 q 183 594 153 564 q 254 642 214 624 q 340 660 294 660 q 426 642 386 660 q 497 594 467 624 q 544 524 526 564 q 563 438 563 483 q 544 351 563 392 q 497 281 526 311 q 426 233 467 250 q 340 215 386 215 q 183 281 249 215 z "},"…":{"ha":1000,"x_min":76,"x_max":924,"o":"m 165 -14 q 101 12 125 -14 q 76 82 76 38 q 102 154 76 128 q 168 181 128 181 q 233 155 208 181 q 257 83 257 129 q 231 13 257 39 q 165 -14 206 -14 m 499 -14 q 434 12 458 -14 q 410 82 410 38 q 435 154 410 128 q 501 181 461 181 q 566 155 542 181 q 590 83 590 129 q 565 13 590 39 q 499 -14 539 -14 m 832 -14 q 767 12 792 -14 q 743 82 743 38 q 769 154 743 128 q 835 181 794 181 q 899 155 875 181 q 924 83 924 129 q 898 13 924 39 q 832 -14 872 -14 z "},"‰":{"ha":1632,"x_min":63,"x_max":1563,"o":"m 215 0 l 778 972 l 903 972 l 340 0 l 215 0 m 279 500 q 121 558 179 500 q 63 735 63 617 q 79 840 63 793 q 126 919 96 888 q 198 969 157 951 q 289 986 239 986 q 448 926 389 986 q 507 747 507 865 q 444 565 507 629 q 279 500 381 500 m 285 896 q 167 743 167 896 q 285 590 167 590 q 403 743 403 590 q 285 896 403 896 m 828 -14 q 669 44 728 -14 q 611 221 611 103 q 628 326 611 279 q 675 406 644 374 q 747 455 706 438 q 838 472 788 472 q 997 412 938 472 q 1056 233 1056 351 q 992 51 1056 115 q 828 -14 929 -14 m 833 382 q 715 229 715 382 q 833 76 715 76 q 951 229 951 76 q 833 382 951 382 m 1335 -14 q 1176 44 1235 -14 q 1118 221 1118 103 q 1135 326 1118 279 q 1182 406 1151 374 q 1253 455 1213 438 q 1344 472 1294 472 q 1503 412 1444 472 q 1563 233 1563 351 q 1499 51 1563 115 q 1335 -14 1436 -14 m 1340 382 q 1222 229 1222 382 q 1340 76 1222 76 q 1458 229 1458 76 q 1340 382 1458 382 z "},"‹":{"ha":438,"x_min":76,"x_max":361,"o":"m 201 368 l 361 160 l 278 104 l 76 326 l 76 410 l 278 632 l 361 576 l 201 368 z "},"›":{"ha":438,"x_min":83,"x_max":368,"o":"m 83 160 l 243 368 l 83 576 l 167 632 l 368 410 l 368 326 l 167 104 l 83 160 z "},"⁄":{"ha":653,"x_min":-21,"x_max":667,"o":"m -21 0 l 542 972 l 667 972 l 104 0 l -21 0 z "},"⁴":{"ha":564,"x_min":21,"x_max":536,"o":"m 21 597 l 303 986 l 439 972 l 439 606 l 536 606 l 536 515 l 439 515 l 439 389 l 321 389 l 321 515 l 29 515 l 21 597 m 321 854 l 142 606 l 321 606 l 321 854 z "},"€":{"ha":872,"x_min":21,"x_max":817,"o":"m 21 528 l 21 625 l 119 625 q 165 771 135 704 q 239 882 194 838 q 351 956 283 926 q 506 986 419 986 q 649 972 582 986 q 749 944 715 958 l 782 931 l 775 738 l 685 738 l 667 849 q 493 875 600 875 q 402 853 440 875 q 339 797 364 832 q 299 716 314 761 q 276 625 283 671 l 618 625 l 618 528 l 21 528 m 21 431 l 21 333 l 125 333 q 133 281 126 319 q 159 195 139 243 q 219 99 179 147 q 331 18 260 51 q 402 -6 365 1 q 475 -14 439 -14 q 599 -1 546 -14 q 693 31 653 11 q 803 104 733 51 l 817 118 l 761 201 q 692 156 725 172 q 613 124 658 140 q 513 107 567 107 q 402 133 446 108 q 335 191 358 157 q 297 263 311 225 q 279 333 283 301 l 618 333 l 618 431 l 21 431 z "},"™":{"ha":1322,"x_min":56,"x_max":1239,"o":"m 439 507 l 439 444 l 151 444 l 151 507 l 242 525 l 242 893 l 139 893 l 122 799 l 56 799 l 56 972 l 535 972 l 535 799 l 468 799 l 451 893 l 349 893 l 349 525 l 439 507 m 996 444 l 996 507 l 1075 525 l 1075 826 l 946 594 l 875 586 l 751 819 l 751 525 l 838 507 l 838 444 l 592 444 l 592 507 l 664 525 l 664 893 l 592 907 l 592 968 l 785 972 l 918 707 l 1056 968 l 1239 972 l 1239 910 l 1169 893 l 1169 525 l 1239 507 l 1239 444 l 996 444 z "},"∂":{"ha":840,"x_min":63,"x_max":757,"o":"m 194 1056 q 361 1083 290 1083 q 757 556 757 1083 q 733 335 757 439 q 660 154 708 232 q 536 31 611 76 q 361 -14 461 -14 q 241 8 296 -14 q 147 69 186 29 q 85 165 107 108 q 63 292 63 222 q 85 419 63 361 q 147 521 107 478 q 244 588 188 564 q 368 611 300 611 q 435 603 401 611 q 499 585 469 596 q 551 563 528 575 q 588 539 575 550 l 615 514 q 617 553 617 535 q 618 590 618 572 q 602 745 618 675 q 553 866 586 815 q 469 944 521 917 q 347 972 418 972 q 287 969 317 974 q 228 961 257 965 l 208 958 l 194 1056 m 604 396 q 520 460 579 431 q 382 490 461 490 q 253 440 297 490 q 208 301 208 389 q 220 221 208 257 q 253 159 232 185 q 301 119 274 133 q 361 104 329 104 q 466 133 422 104 q 538 203 510 163 q 581 290 565 244 q 600 367 596 335 l 604 396 z "},"∏":{"ha":1000,"x_min":49,"x_max":951,"o":"m 306 -319 l 167 -319 l 167 861 l 49 889 l 49 965 l 306 972 l 951 972 l 951 889 l 836 861 l 833 861 l 833 -319 l 694 -319 l 694 861 l 306 861 l 306 -319 z "},"∑":{"ha":826,"x_min":42,"x_max":757,"o":"m 49 -319 l 49 -215 l 438 333 l 42 868 l 42 972 l 743 972 l 743 736 l 653 736 l 618 861 l 215 861 l 597 350 l 201 -208 l 632 -208 l 660 -69 l 757 -69 l 757 -319 l 49 -319 z "},"−":{"ha":806,"x_min":69,"x_max":736,"o":"m 69 319 l 69 431 l 736 431 l 736 319 l 69 319 z "},"√":{"ha":931,"x_min":21,"x_max":924,"o":"m 97 632 l 21 653 l 21 729 l 208 736 l 401 125 l 660 1063 l 924 1069 l 924 993 l 760 972 l 472 0 l 319 0 l 97 632 z "},"∞":{"ha":1222,"x_min":76,"x_max":1146,"o":"m 896 181 q 749 221 817 181 q 604 333 681 261 q 567 299 594 324 q 501 247 540 274 q 413 201 461 221 q 313 181 364 181 q 138 241 200 181 q 76 403 76 301 q 94 498 76 454 q 143 573 111 542 q 222 622 175 604 q 326 639 268 639 q 470 599 403 639 q 617 486 538 558 q 910 639 769 639 q 1084 579 1022 639 q 1146 415 1146 519 q 1128 322 1146 365 q 1079 248 1111 279 q 1001 199 1047 217 q 896 181 954 181 m 903 535 q 693 413 811 535 q 806 317 758 349 q 903 285 854 285 q 1028 410 1028 285 q 903 535 1028 535 m 319 285 q 528 407 410 285 q 415 502 464 469 q 319 535 367 535 q 194 410 194 535 q 319 285 194 285 z "},"∫":{"ha":531,"x_min":7,"x_max":510,"o":"m 510 993 l 500 899 q 415 910 463 910 q 343 872 367 910 q 319 732 319 833 q 320 653 319 707 q 323 529 321 599 q 326 381 325 460 q 330 224 328 301 q 333 79 332 147 q 333 -35 333 11 q 111 -333 333 -333 q 24 -317 78 -333 l 7 -312 l 14 -222 q 53 -227 35 -225 q 90 -229 72 -229 q 171 -191 147 -229 q 194 -51 194 -153 q 194 28 194 -26 q 191 152 193 82 q 188 301 189 222 q 184 456 186 381 q 181 597 182 532 q 181 703 181 661 q 233 933 181 853 q 404 1014 286 1014 q 441 1010 419 1015 q 492 997 463 1004 l 510 993 z "},"≈":{"ha":869,"x_min":83,"x_max":786,"o":"m 147 388 l 83 431 q 112 476 97 458 q 152 517 126 493 q 215 555 178 540 q 306 569 253 569 q 369 556 331 569 q 449 522 407 543 q 525 486 490 500 q 582 472 560 472 q 657 492 625 471 q 706 535 689 514 l 722 556 l 786 513 q 758 469 776 493 q 713 422 739 444 q 655 383 688 399 q 585 368 622 368 q 510 381 553 368 q 422 417 467 394 q 341 452 376 439 q 281 465 306 465 q 208 446 239 465 q 161 407 176 426 l 147 388 m 147 158 l 83 201 l 92 217 q 112 247 97 228 q 151 288 126 265 q 215 325 176 310 q 306 340 253 340 q 369 328 331 340 q 449 292 407 315 q 527 256 490 268 q 582 243 564 243 q 657 263 625 242 q 706 306 689 285 l 722 326 l 786 283 q 758 240 776 264 q 713 192 739 215 q 655 154 688 169 q 585 139 622 139 q 511 151 556 139 q 422 187 467 164 q 338 223 376 210 q 281 236 299 236 q 208 217 240 235 q 161 178 176 199 l 147 158 z "},"≠":{"ha":882,"x_min":90,"x_max":792,"o":"m 90 458 l 90 569 l 468 569 l 556 750 l 667 750 l 579 569 l 792 569 l 792 458 l 526 458 l 449 299 l 792 299 l 792 188 l 396 188 l 306 0 l 194 0 l 285 188 l 90 188 l 90 299 l 338 299 l 415 458 l 90 458 z "},"≤":{"ha":854,"x_min":76,"x_max":778,"o":"m 76 0 l 76 108 l 778 108 l 778 0 l 76 0 m 229 479 l 778 299 l 778 188 l 76 431 l 76 528 l 778 764 l 778 653 l 229 479 z "},"≥":{"ha":854,"x_min":76,"x_max":778,"o":"m 778 108 l 778 0 l 76 0 l 76 108 l 778 108 m 76 299 l 625 479 l 76 653 l 76 764 l 778 528 l 778 431 l 76 188 l 76 299 z "},"◊":{"ha":708,"x_min":24,"x_max":681,"o":"m 292 -56 l 24 508 l 288 1069 l 413 1069 l 681 507 l 417 -56 l 292 -56 m 342 950 l 153 528 l 363 64 l 553 488 l 342 950 z "},"ﬁ":{"ha":993,"x_min":97,"x_max":944,"o":"m 97 625 l 97 715 l 222 729 l 222 799 q 300 1013 222 942 q 542 1083 378 1083 q 676 1072 607 1083 q 783 1047 746 1060 l 819 1036 l 819 868 l 708 868 l 688 968 q 549 979 625 979 q 361 826 361 979 l 361 729 l 840 736 l 840 111 l 944 76 l 944 0 l 597 0 l 597 76 l 701 111 l 701 625 l 361 625 l 361 111 l 475 76 l 475 0 l 104 0 l 104 76 l 222 111 l 222 625 l 97 625 z "},"ﬂ":{"ha":1051,"x_min":97,"x_max":944,"o":"m 97 625 l 97 715 l 222 729 l 222 813 q 300 1013 222 942 q 514 1083 378 1083 q 790 1072 632 1083 l 843 1069 l 843 111 l 944 76 l 944 0 l 597 0 l 597 76 l 701 111 l 701 965 q 532 979 604 979 q 408 941 454 979 q 361 840 361 903 l 361 729 l 544 729 l 540 625 l 361 625 l 361 111 l 475 76 l 475 0 l 104 0 l 104 76 l 222 111 l 222 625 l 97 625 z "}}}
